<svg width="346" height="230" viewBox="0 0 346 230" fill="none" xmlns="http://www.w3.org/2000/svg">
<g clip-path="url(#clip0)" filter="url(#filter0_d)">
<g filter="url(#filter1_d)">
<rect x="14.7876" y="8.34009" width="228.738" height="143.89" rx="20" transform="rotate(-0.0609002 14.7876 8.34009)" fill="#C35BC0"/>
</g>
<path fill-rule="evenodd" clip-rule="evenodd" d="M24.0747 8.14299C23.7698 8.2216 23.7508 8.27479 23.9752 8.42565C24.16 8.54872 24.0597 8.56619 23.6765 8.47647C23.2934 8.38675 23.1425 8.41216 23.2286 8.55111C23.3108 8.68529 23.201 8.72102 22.9292 8.64877C22.6369 8.57254 22.5445 8.60986 22.6401 8.76549C22.7317 8.91396 22.6725 8.95287 22.4726 8.87585C22.3019 8.80995 22.1637 8.86077 22.1637 8.98939C22.1637 9.11802 22.0744 9.16725 21.9646 9.09897C21.8556 9.03148 21.7655 9.07594 21.7655 9.19901C21.7655 9.32208 21.6628 9.3586 21.5364 9.28079C21.4108 9.20219 21.1865 9.30382 21.0387 9.50708C20.8918 9.70955 20.7709 9.7961 20.7709 9.69923C20.7709 9.60236 20.6295 9.69764 20.4573 9.91123C20.2851 10.1248 20.2053 10.1645 20.2803 9.99936C20.3554 9.83421 20.2053 9.9287 19.947 10.209C19.6886 10.4893 19.5646 10.579 19.672 10.4091C19.7787 10.2384 19.2178 10.7656 18.4254 11.5794C17.6323 12.3933 17.0224 13.0983 17.0698 13.146C17.1172 13.1936 16.9947 13.3945 16.7972 13.593C16.2964 14.0964 15.6375 15.9575 15.3942 17.5535C15.2559 18.4642 15.2077 47.9835 15.2441 108.899L15.2986 198.899L15.8113 200.224C17.2222 203.862 19.5488 206.113 23.1583 207.331C24.3796 207.742 321.216 208.03 320.963 207.62C320.899 207.515 321.202 207.485 321.678 207.549C322.327 207.636 322.47 207.604 322.343 207.399C322.236 207.224 322.26 207.186 322.417 207.283C322.748 207.489 323.867 207.212 323.714 206.961C323.632 206.83 323.749 206.808 324.035 206.899C324.3 206.984 324.436 206.965 324.367 206.853C324.303 206.75 324.584 206.506 324.989 206.312C326.213 205.726 327.579 204.619 328.549 203.427C329.053 202.806 329.535 202.319 329.617 202.343C329.7 202.367 330.024 201.782 330.335 201.043L330.9 199.699V108V16.299L330.362 15.0381C329.021 11.8923 326.98 9.9279 324.091 8.99972L322.344 8.43836L173.865 8.36928C92.2011 8.33037 25.4888 8.23351 25.6152 8.15252C25.8648 7.99292 24.687 7.98498 24.0747 8.14299ZM48.8831 24.7995H51.0177V26.9544V29.1094L52.51 30.5997L54.0031 32.09L52.5171 33.5947L51.0303 35.0993L50.9742 37.1994L50.9181 39.2996L48.7622 39.3313L46.6063 39.3631L45.2467 40.8312L43.8863 42.2993L42.428 40.8558L40.9689 39.4123L38.7798 39.3559L36.5907 39.2996L36.5591 37.1224L36.5267 34.9453L35.0715 33.4724L33.6155 31.9995L35.0533 30.5449L36.4911 29.0895V26.9449V24.7995H38.6352H40.7793L42.2621 23.2989L43.7449 21.799L45.2467 23.2989L46.7477 24.7995H48.8831ZM43.1572 24.1993C42.9597 24.4192 42.8333 24.605 42.8775 24.6129C44.2521 24.8448 44.9584 24.5788 44.3019 24.0778C43.8192 23.7094 43.5751 23.7356 43.1572 24.1993ZM37.8175 26.1327C37.6287 26.3232 37.6532 27.3991 37.8468 27.3991C38.0403 27.3991 39.0784 26.3367 39.0784 26.1382C39.0784 25.9604 37.9937 25.9556 37.8175 26.1327ZM39.6496 27.7357L37.8839 29.4714V31.99V34.5078L39.5303 36.1537L41.1758 37.7989H43.756H46.3369L47.9809 36.0791L49.6249 34.3585V31.9408V29.5238L47.8711 27.7611L46.1181 25.9993H43.7662H41.4144L39.6496 27.7357ZM48.8286 26.6996C49.1999 27.0847 49.5309 27.3991 49.5641 27.3991C49.5972 27.3991 49.6249 27.0847 49.6249 26.6996C49.6249 26.0255 49.5972 25.9993 48.8894 25.9993H48.1539L48.8286 26.6996ZM234.29 28.1732V29.7477L235.316 29.8843C240.601 30.5894 240.404 38.1991 235.101 38.1991H234.307L234.249 39.6489L234.19 41.0996L233.046 41.1591L231.902 41.2194V39.7093V38.1991H231.045C229.761 38.1991 228.229 37.3558 227.621 36.3141C225.877 33.3215 227.888 29.7993 231.341 29.7993H231.902V28.1994V26.5995H233.096H234.29V28.1732ZM46.017 30.6886C47.2351 32.8285 48.2313 34.6729 48.2313 34.7888C48.2313 34.9302 46.7185 34.9992 43.6414 34.9992C39.3312 34.9992 39.0539 34.977 39.1139 34.6396C39.2245 34.0139 43.3231 26.7996 43.568 26.7996C43.6967 26.7996 44.7988 28.5496 46.017 30.6886ZM187.036 28.4996L186.898 29.7993H187.991H189.084L189.25 28.5496L189.417 27.299L190.292 27.2363L191.166 27.1736L191.032 28.4861L190.898 29.7993H191.898H192.899V30.6989V31.5993H191.814H190.728L190.611 32.3497C190.33 34.1425 190.267 33.9996 191.335 33.9996H192.302V34.8992V35.7996H191.228H190.152L190.014 36.9993L189.875 38.1991H188.98H188.084L188.223 36.9993L188.362 35.7996H187.272C186.087 35.7996 185.935 36.0076 185.935 37.6242C185.935 38.1745 185.895 38.1991 185.014 38.1991H184.092L184.227 36.9993L184.363 35.7996H183.358H182.353V34.8992V33.9996H183.443C184.638 33.9996 184.587 34.0615 184.814 32.3497L184.915 31.5993H183.932H182.949V30.6989V29.7993H184.021H185.093L185.235 28.6496C185.416 27.1879 185.407 27.199 186.368 27.199H187.175L187.036 28.4996ZM43.1113 29.3293C41.194 32.6832 40.6702 33.6463 40.6702 33.817C40.6702 33.9194 42.108 33.9996 43.9535 33.9996C45.8463 33.9996 47.2367 33.9202 47.2367 33.813C47.2367 33.6074 44.3271 28.4003 44.0609 28.1296C43.9693 28.0367 43.5419 28.5766 43.1113 29.3293ZM94.3207 28.872C94.3326 28.887 94.3981 29.2666 94.4669 29.7152L94.5909 30.5314L93.5489 30.4449C92.2722 30.3385 91.7714 30.7569 91.7714 31.9289C91.7714 33.1865 92.7273 33.6852 94.169 33.1794L94.7963 32.9603V30.88V28.7989H97.0778C99.3459 28.7989 99.3633 28.8029 100.062 29.4198L100.766 30.0407V29.4198V28.7989H103.154H105.542V29.5905V30.3813L104.214 30.4401C102.434 30.5195 102.193 30.9991 103.933 30.9991H105.144V31.7891V32.5791L103.999 32.6395C102.116 32.7379 102.413 33.2993 104.347 33.2993H105.84L105.897 31.0491L105.953 28.7989H107.846C110.006 28.7989 110.712 29.0554 111.321 30.059L111.709 30.6989L111.709 29.7493L111.71 28.7989H115.889H120.068V29.5993C120.068 30.398 120.067 30.3996 119.278 30.3996H118.489L118.433 32.649L118.376 34.8992H117.282H116.188L116.131 32.649L116.075 30.3996H114.987H113.899V32.699V34.9992H112.805H111.71L111.709 34.0496L111.709 33.0992L111.307 33.7614C110.626 34.8849 110.058 34.9992 105.15 34.9992H100.766V33.2993C100.766 31.5636 100.729 31.4445 100.31 31.8058C100.178 31.9201 99.9179 32.1226 99.733 32.256C99.421 32.4823 99.4304 32.5823 99.8728 33.659C100.414 34.9802 100.356 35.0636 98.9533 34.9619L98.0898 34.8992L97.6514 33.3993C97.0897 31.4747 97.0897 31.3993 97.6695 31.3993C98.2668 31.3993 98.4927 31.0801 98.172 30.6902C97.3433 29.6874 96.9846 30.2884 96.9846 32.6792V34.9595L94.4534 34.9635C91.0446 34.9691 90.2799 34.6102 89.6218 32.6959C89.3437 31.8852 89.2979 31.8463 88.9361 32.1139C88.519 32.4227 88.4961 32.2861 89.3809 34.7603C89.452 34.9595 89.1999 35.0064 88.3096 34.9603L87.1459 34.8992L86.7075 33.3993C86.1798 31.5938 86.1529 31.323 86.5187 31.4644C87.0148 31.6557 87.5646 31.0991 87.2518 30.7212C86.3954 29.6842 86.0399 30.2654 86.0399 32.7038V35.008L82.4083 34.954L78.7767 34.8992L78.7206 32.649L78.6645 30.3996H77.7757H76.887V32.699V34.9992H75.7921H74.6979V32.699V30.3996H73.7025H72.7079V32.699V34.9992H71.4613H70.2154L69.4215 33.4494L68.6283 31.8995L68.5707 33.4517L68.5122 35.0032L63.4957 34.9881C56.8084 34.9683 55.8643 34.5578 56.0444 31.7462C56.1748 29.6961 57.325 28.7513 59.5741 28.845L60.8674 28.8989L60.9274 29.7255L60.9875 30.5529L60.1319 30.456C58.9769 30.3266 58.1814 30.9205 58.1814 31.9138C58.1814 33.1865 59.2329 33.7074 60.7386 33.1794L61.3651 32.9603V30.88V28.7989H63.7533H66.1414V29.5905V30.3813L64.7976 30.4401C62.9862 30.5195 62.844 31.0674 64.6104 31.1595L65.7662 31.2198L65.7045 31.9598L65.6437 32.699L64.5488 32.7181C63.7509 32.7324 63.4546 32.8134 63.4546 33.0182C63.4546 33.2358 63.8085 33.2993 65.022 33.2993H66.5886L66.553 31.0491L66.5175 28.7989H67.8131H69.1087L69.8963 30.4496L70.6831 32.0996L70.7005 30.4496L70.7179 28.7989H77.1848L83.6526 28.7989V29.5993V30.3996H82.2598C80.4183 30.3996 80.2066 30.9451 82.0109 31.0396L83.1549 31.0991L83.2157 31.8391L83.2773 32.5783L82.1215 32.6387C80.2453 32.7371 80.5273 33.2779 82.4581 33.2842L83.9512 33.289L83.9749 31.994C83.9883 31.2817 84.0104 30.2718 84.0247 29.7493L84.0507 28.7989H86.0502C88.2535 28.7989 88.9969 29.0387 89.3729 29.8684L89.5997 30.3678L90.3091 29.6953C91.1939 28.8569 93.8633 28.309 94.3207 28.872ZM45.5248 31.2325C46.8551 33.6614 47.0155 33.424 44.087 33.3557L41.6791 33.2993L42.8854 31.1491C43.549 29.9669 44.1628 29.0442 44.2505 29.099C44.3382 29.153 44.9117 30.113 45.5248 31.2325ZM223.741 30.2742C224.962 30.8847 225.766 32.1948 225.804 33.6375L225.833 34.6991H222.698C219.337 34.6991 219.262 34.7261 220.146 35.6146C220.826 36.2974 222.401 36.4308 223.429 35.8917C224.16 35.509 225.558 36.5872 225.082 37.1669C223.473 39.1265 218.778 38.3706 217.551 35.9536C215.591 32.0932 219.75 28.2772 223.741 30.2742ZM257.818 30.1416C259.383 30.7712 260.515 32.8412 260.24 34.5729C259.408 39.7998 251.132 39.2932 251.14 34.0163C251.143 31.7486 252.371 30.3424 254.885 29.7279C255.473 29.585 256.952 29.793 257.818 30.1416ZM277.127 29.8756C279.033 30.452 280.088 31.7907 280.133 33.6915L280.157 34.6991L276.973 34.7992L273.79 34.8992L274.421 35.5495C275.165 36.3149 276.973 36.488 277.842 35.8766C278.44 35.455 279.855 36.6206 279.407 37.1669C278.927 37.7513 277.478 38.2292 276.163 38.2372C270.062 38.2721 269.809 30.0685 275.897 29.6223C276.071 29.6096 276.624 29.7231 277.127 29.8756ZM295.949 30.2654C298.888 31.7359 298.898 36.0831 295.964 37.6869C292.924 39.3496 289.034 37.309 289.017 34.0425C289 30.6862 292.728 28.6544 295.949 30.2654ZM315.525 30.1416C318.782 31.4509 318.722 36.5618 315.433 37.8973C312.187 39.217 308.912 37.259 308.912 33.9996C308.912 30.6616 312.139 28.7798 315.525 30.1416ZM197.737 31.2992C198.165 32.0694 198.755 33.1262 199.049 33.6479L199.586 34.5967L200.968 32.2004L202.352 29.8041L203.496 29.8017L204.639 29.7993V33.9996V38.1991H203.545H202.451L202.449 35.7496L202.446 33.2993L201.232 35.3494C199.624 38.0641 199.365 38.0966 198.035 35.748C196.517 33.0643 196.581 33.0643 196.581 35.7448V38.099L195.437 38.1594L194.292 38.2189V34.0004V29.7811L195.626 29.8398L196.961 29.8994L197.737 31.2992ZM209.416 31.3993V32.9992H211.207H212.998V31.3897V29.7803L214.217 29.8398L215.436 29.8994L215.425 33.9996L215.414 38.099L214.206 38.1586L212.998 38.2181V36.6587V35.0993L211.257 35.1366L209.515 35.1731L209.457 36.6865L209.399 38.1991H208.213L207.028 38.1991V33.9996V29.7993L208.221 29.7993H209.416V31.3993ZM243.288 32.2155L243.344 34.6308L245.305 32.2155L247.266 29.7993H248.439H249.612V33.9996V38.1991H248.325H247.037L246.982 35.8306L246.926 33.4613L245.035 35.8187L243.145 38.1752L242.001 38.1872L240.856 38.1991V33.9996V29.7993H242.044H243.232L243.288 32.2155ZM269.779 33.9996L269.81 38.099L268.566 38.1586L267.322 38.2181V35.0088V31.7994H266.057H264.792L264.659 33.5828C264.378 37.3169 263.567 38.4857 261.429 38.2348C260.446 38.1189 260.372 36.3268 261.342 36.1315C262.204 35.9584 262.399 35.3772 262.492 32.7054C262.538 31.3818 262.612 30.1844 262.656 30.0447C262.718 29.8486 263.54 29.8025 266.242 29.8446L269.748 29.8994L269.779 33.9996ZM288.813 30.799V31.7994H287.42H286.028V34.9992V38.1991H284.834H283.639V35.008V31.8169L282.197 31.7581L280.754 31.6994L280.69 31.03C280.57 29.766 280.457 29.7993 284.828 29.7993H288.813V30.799ZM306.026 30.1717C307.531 30.8601 307.887 32.2822 306.831 33.3906C306.298 33.9488 306.296 33.9631 306.707 34.0941C307.309 34.2862 307.783 35.3184 307.649 36.1482C307.388 37.764 306.339 38.1887 302.594 38.1951L299.758 38.1991V33.9996V29.7993L302.494 29.8033C304.709 29.8073 305.382 29.8772 306.026 30.1717ZM43.7734 31.3993L43.2322 32.3989H44.4385C45.8408 32.3989 45.7981 32.4704 45.099 31.3071C44.4235 30.1828 44.433 30.1821 43.7734 31.3993ZM107.929 31.8868V33.1993H108.531C109.793 33.1993 109.83 30.7601 108.57 30.6362L107.929 30.5743V31.8868ZM35.8252 31.5652C35.4033 32.0337 35.4104 32.2592 35.8599 32.6681C36.4042 33.1635 36.4911 33.0849 36.4911 32.0996C36.4911 31.1229 36.3355 30.9983 35.8252 31.5652ZM51.0177 31.9995C51.0177 32.8928 51.1836 32.988 51.7144 32.3989C52.062 32.013 52.062 31.9852 51.7144 31.5993C51.1836 31.0102 51.0177 31.1055 51.0177 31.9995ZM186.642 31.8495C186.6 31.9868 186.515 32.5267 186.453 33.0492L186.34 33.9996H187.437C188.639 33.9996 188.625 34.0131 188.799 32.549L188.911 31.5993H187.815C187.111 31.5993 186.691 31.6891 186.642 31.8495ZM220.079 32.2147C219.307 33.1381 219.398 33.1993 221.554 33.1993C223.749 33.1993 223.879 33.1056 222.963 32.1837C222.114 31.331 220.808 31.3453 220.079 32.2147ZM231.131 31.8209C228.909 32.2782 228.742 35.5709 230.907 36.2228C231.952 36.538 231.924 36.6055 231.859 33.9678L231.802 31.6819L231.131 31.8209ZM234.29 34.0202C234.29 36.6619 234.31 36.6936 235.588 36.0839C237.488 35.1771 237.146 32.3703 235.07 31.8407L234.29 31.6414V34.0202ZM274.471 32.1837C273.554 33.1056 273.684 33.1993 275.879 33.1993C278.035 33.1993 278.127 33.1381 277.353 32.2147C276.626 31.3453 275.319 31.331 274.471 32.1837ZM302.069 32.4354L302.092 33.2715L303.362 33.2191C305.917 33.1143 305.906 31.5993 303.35 31.5993H302.046L302.069 32.4354ZM254.537 32.0154C253.668 32.5244 253.342 34.1346 253.893 35.2033C254.609 36.5968 256.753 36.5968 257.47 35.2033C258.534 33.1349 256.465 30.8863 254.537 32.0154ZM292.115 32.4148C291.349 33.3295 291.38 34.8095 292.181 35.6146C293.714 37.155 296.097 35.6503 295.654 33.4216C295.327 31.7796 293.162 31.1634 292.115 32.4148ZM312.245 32.0154C311.026 32.7292 311.051 35.3303 312.283 35.9933C313.844 36.8326 315.379 35.8433 315.379 33.9996C315.379 32.1583 313.756 31.1309 312.245 32.0154ZM302.133 34.6991C302.125 34.6991 302.103 35.0818 302.083 35.5495L302.046 36.3999L303.465 36.3991C305.01 36.3991 305.41 36.172 305.296 35.3605C305.236 34.9357 304.104 34.6991 302.133 34.6991ZM48.8286 37.2995L48.1539 37.999H48.8894C49.5972 37.999 49.6249 37.9728 49.6249 37.2995C49.6249 36.9144 49.5972 36.5992 49.5641 36.5992C49.5309 36.5992 49.1999 36.9144 48.8286 37.2995ZM37.921 37.4479C37.9858 38.1181 38.3824 38.3571 39.0215 38.1101C39.2885 38.0077 39.2482 37.891 38.7742 37.3932C38.0466 36.6309 37.8436 36.6436 37.921 37.4479ZM42.8649 39.5497C42.8901 40.1412 43.8152 40.3667 44.2608 39.8895L44.719 39.3996H43.7892C43.2772 39.3996 42.8617 39.4671 42.8649 39.5497ZM86.856 73.1525C87.9604 73.6996 89.1099 74.8128 89.6913 75.899C90.3715 77.1694 90.362 98.2429 89.681 99.5229C89.008 100.788 88.3602 101.463 87.2012 102.108L86.1395 102.7H71.613H57.0872L56.1258 102.206C54.9969 101.626 53.9146 100.487 53.39 99.3268C52.9326 98.3136 52.7959 77.8832 53.2383 76.5794C53.5694 75.602 54.4976 74.2991 55.2426 73.7663C56.8984 72.5817 56.5808 72.6023 71.9116 72.6531L85.9404 72.6992L86.856 73.1525ZM41.0818 77.2067C41.9011 77.6474 43.47 81.5435 43.9551 84.3432C45.0168 90.4625 42.6563 99.7436 40.1962 99.1235C39.2277 98.8789 39.1977 98.2239 40.0698 96.3548C42.4928 91.1573 42.4904 85.0363 40.0635 79.8301C39.2838 78.1579 39.2704 78.011 39.836 77.3496C40.1773 76.9494 40.5288 76.909 41.0818 77.2067ZM37.1919 79.7221C37.7717 80.3509 38.8137 82.991 39.1937 84.7942C40.2326 89.7178 38.2015 97.4744 36.0179 96.9233C35.0897 96.6891 34.9372 95.9538 35.5605 94.7168C37.6698 90.5292 37.7109 85.8137 35.6727 81.7547C34.6575 79.7332 35.7959 78.2087 37.1919 79.7221ZM32.8524 81.8492C35.6608 84.9299 34.983 94.7994 31.9636 94.7994C30.879 94.7994 30.7147 93.8704 31.5015 92.1974C32.7339 89.578 32.7363 86.6688 31.5078 84.0819C30.5298 82.0215 31.5157 80.3835 32.8524 81.8492ZM28.7776 83.8493C30.3844 85.0975 30.7391 89.2668 29.4293 91.513C28.0358 93.9029 26.2598 92.7064 27.4354 90.1688C28.0966 88.7411 28.0974 87.3898 27.4377 86.0828C26.5237 84.2725 27.4125 82.7893 28.7776 83.8493ZM325.448 206.278C324.966 206.531 324.659 206.792 324.764 206.858C324.87 206.924 325.354 206.713 325.84 206.389C326.887 205.69 326.678 205.631 325.448 206.278Z" fill="#C35BC0"/>
<path fill-rule="evenodd" clip-rule="evenodd" d="M25.6149 8.15138C25.4885 8.23237 92.2009 8.33082 173.865 8.36973L322.344 8.44039L323.827 8.91124C325.715 9.5115 325.828 9.41066 324.093 8.67383L322.742 8.09897L174.293 8.05133C92.6464 8.02593 25.7413 8.07039 25.6149 8.15138ZM42.2618 23.2985L40.779 24.7992H38.6349H36.4909V26.9446V29.0892L35.0531 30.5446L33.6153 31.9992L35.0712 33.472L36.5264 34.9449L36.5588 37.1221L36.5904 39.2992L38.7795 39.3556L40.9686 39.412L42.4277 40.8554L43.886 42.2989L45.2464 40.8308L46.606 39.3627L48.7619 39.331L50.9178 39.2992L50.9739 37.1991L51.03 35.0989L52.5168 33.5943L54.0028 32.0897L52.5097 30.5993L51.0174 29.109V26.9541V24.7992H48.8828H46.7474L45.2464 23.2985L43.7446 21.7986L42.2618 23.2985ZM44.3016 24.0774C44.9581 24.5784 44.2518 24.8444 42.8772 24.6126C42.7003 24.5824 43.5321 23.7995 43.7352 23.8051C43.8552 23.8091 44.1096 23.9313 44.3016 24.0774ZM39.0781 26.1379C39.0781 26.3364 38.04 27.3987 37.8465 27.3987C37.6529 27.3987 37.6285 26.3229 37.8173 26.1323C37.9934 25.9552 39.0781 25.96 39.0781 26.1379ZM47.8708 27.7608L49.6246 29.5235V31.9404V34.3581L47.9806 36.0787L46.3366 37.7985H43.7557H41.1756L39.53 36.1534L37.8836 34.5074V31.9896V29.4711L39.6493 27.7354L41.4141 25.9989H43.766H46.1178L47.8708 27.7608ZM49.6246 26.6992C49.6246 27.0843 49.597 27.3987 49.5638 27.3987C49.5306 27.3987 49.1996 27.0843 48.8283 26.6992L48.1536 25.9989H48.8891C49.597 25.9989 49.6246 26.0251 49.6246 26.6992ZM231.901 28.1991V29.799H231.34C227.887 29.799 225.877 33.3212 227.621 36.3138C228.229 37.3555 229.76 38.1987 231.045 38.1987H231.901V39.7089V41.2191L233.046 41.1588L234.19 41.0992L234.248 39.6486L234.307 38.1987H235.101C240.404 38.1987 240.601 30.589 235.316 29.884L234.289 29.7474V28.1729V26.5992H233.096H231.901V28.1991ZM41.2553 30.539C40.1122 32.5963 39.1484 34.4415 39.1137 34.6392C39.0536 34.9767 39.3309 34.9989 43.6411 34.9989C46.7182 34.9989 48.231 34.9298 48.231 34.7885C48.231 34.3891 43.8007 26.7993 43.5677 26.7993C43.4389 26.7993 42.3985 28.4817 41.2553 30.539ZM185.468 27.3487C185.418 27.4313 185.313 28.0165 185.234 28.6493L185.092 29.799H184.021H182.949V30.6986V31.599H183.932H184.914L184.814 32.3493C184.587 34.0612 184.638 33.9993 183.443 33.9993H182.352V34.8989V35.7993H183.357H184.362L184.227 36.999L184.092 38.1987H185.013C185.895 38.1987 185.934 38.1741 185.934 37.6239C185.934 36.0073 186.087 35.7993 187.272 35.7993H188.361L188.223 36.999L188.084 38.1987H188.98H189.875L190.014 36.999L190.152 35.7993H191.227H192.302V34.8989V33.9993H191.335C190.267 33.9993 190.33 34.1422 190.61 32.3493L190.728 31.599H191.814H192.899V30.6986V29.799H191.898H190.898L191.031 28.4857L191.166 27.1732L190.291 27.236L189.417 27.2987L189.25 28.5492L189.083 29.799H187.991H186.897L187.036 28.4992L187.175 27.1986H186.367C185.923 27.1986 185.519 27.2661 185.468 27.3487ZM45.7323 30.963C46.5594 32.4279 47.2364 33.7102 47.2364 33.8127C47.2364 33.9199 45.846 33.9993 43.9532 33.9993C42.1078 33.9993 40.67 33.9191 40.67 33.8166C40.67 33.6459 41.1937 32.6828 43.1111 29.3289C43.5416 28.5762 43.969 28.0363 44.0606 28.1292C44.1531 28.2229 44.9051 29.4981 45.7323 30.963ZM91.8627 28.8271C91.3706 28.9407 90.7236 29.302 90.3088 29.695L89.5994 30.3675L89.3727 29.8681C88.9966 29.0383 88.2532 28.7986 86.0499 28.7986H84.0504L84.0244 29.749C84.0101 30.2714 83.988 31.2814 83.9746 31.9936L83.9509 33.2886L82.4578 33.2839C80.527 33.2775 80.245 32.7368 82.1212 32.6383L83.277 32.578L83.2154 31.8388L83.1546 31.0988L82.0106 31.0392C80.2063 30.9447 80.418 30.3993 82.2595 30.3993H83.6523V29.5989V28.7986H77.1845H70.7176L70.7002 30.4493L70.6828 32.0992L69.896 30.4493L69.1084 28.7986H67.8128H66.5172L66.5527 31.0487L66.5883 33.2989H65.0217C63.8083 33.2989 63.4543 33.2354 63.4543 33.0179C63.4543 32.813 63.7506 32.732 64.5485 32.7177L65.6434 32.6987L65.7043 31.9595L65.7659 31.2195L64.6101 31.1591C62.8437 31.067 62.9859 30.5192 64.7973 30.4398L66.1411 30.381V29.5902V28.7986H63.753H61.3648V30.8796V32.9599L60.7383 33.1791C59.2326 33.7071 58.1811 33.1862 58.1811 31.9134C58.1811 30.9201 58.9766 30.3262 60.1316 30.4556L60.9872 30.5525L60.9271 29.7252L60.8671 28.8986L59.5739 28.8446C57.3247 28.7509 56.1745 29.6958 56.0441 31.7459C55.864 34.5574 56.8081 34.9679 63.4954 34.9878L68.5119 35.0029L68.5704 33.4514L68.6281 31.8991L69.4212 33.449L70.2152 34.9989H71.461H72.7076V32.6987V30.3993H73.7022H74.6976V32.6987V34.9989H75.7918H76.8867V32.6987V30.3993H77.7755H78.6642L78.7203 32.6487L78.7764 34.8989L82.408 34.9536L86.0396 35.0076V32.7034C86.0396 30.2651 86.3951 29.6839 87.2515 30.7208C87.5643 31.0988 87.0145 31.6554 86.5184 31.464C86.1526 31.3227 86.1795 31.5934 86.7072 33.399L87.1456 34.8989L88.3093 34.96C89.1996 35.006 89.4517 34.9592 89.3806 34.7599C88.4958 32.2858 88.5187 32.4224 88.9358 32.1135C89.2976 31.8459 89.3434 31.8848 89.6215 32.6955C90.2796 34.6098 91.0443 34.9687 94.4531 34.9632L96.9843 34.9592V32.6788C96.9843 30.2881 97.343 29.687 98.1717 30.6899C98.4924 31.0797 98.2665 31.3989 97.6692 31.3989C97.0894 31.3989 97.0894 31.4743 97.6511 33.399L98.0895 34.8989L98.953 34.9616C100.355 35.0632 100.414 34.9798 99.8725 33.6586C99.4301 32.582 99.4207 32.4819 99.7327 32.2556C99.9176 32.1222 100.177 31.9198 100.309 31.8054C100.729 31.4442 100.765 31.5633 100.765 33.2989V34.9989H105.15C110.057 34.9989 110.625 34.8846 111.307 33.7611L111.708 33.0989L111.709 34.0493L111.71 34.9989H112.805H113.899V32.6987V30.3993H114.987H116.075L116.131 32.6487L116.188 34.8989H117.282H118.376L118.433 32.6487L118.489 30.3993H119.278C120.067 30.3993 120.067 30.3977 120.067 29.5989V28.7986H115.889H111.71L111.709 29.749L111.708 30.6986L111.32 30.0586C110.711 29.055 110.006 28.7986 107.846 28.7986H105.952L105.896 31.0487L105.839 33.2989H104.347C102.412 33.2989 102.116 32.7376 103.999 32.6391L105.143 32.5788V31.7888V30.9987H103.932C102.193 30.9987 102.434 30.5192 104.214 30.4398L105.542 30.381V29.5902V28.7986H103.153H100.765V29.4195V30.0404L100.062 29.4195C99.363 28.8025 99.3456 28.7986 97.0775 28.7986H94.796V30.8796V32.9599L94.1687 33.1791C92.727 33.6848 91.7711 33.1862 91.7711 31.9285C91.7711 30.7566 92.272 30.3381 93.5486 30.4445L94.5906 30.5311L94.4666 29.7148C94.3978 29.2662 94.3323 28.8867 94.3204 28.8716C94.1869 28.7072 92.5161 28.6771 91.8627 28.8271ZM42.8851 31.1488L41.6788 33.2989L44.0867 33.3553C45.4107 33.3863 46.527 33.3791 46.5665 33.3386C46.6582 33.2465 44.4651 29.2321 44.2502 29.0987C44.1625 29.0439 43.5487 29.9665 42.8851 31.1488ZM220.559 29.7823C216.295 30.6724 215.841 36.3789 219.908 37.9891C221.381 38.5727 224.309 38.1066 225.081 37.1665C225.558 36.5869 224.159 35.5086 223.429 35.8914C222.401 36.4305 220.825 36.2971 220.145 35.6143C219.261 34.7258 219.336 34.6988 222.698 34.6988H225.833L225.804 33.6372C225.736 31.0789 223.216 29.2265 220.559 29.7823ZM254.885 29.7275C248.752 31.2258 250.552 39.2539 256.775 38.1551C259.97 37.5913 261.356 33.7102 259.247 31.2345C258.311 30.1356 256.2 29.4068 254.885 29.7275ZM275.182 29.7355C269.62 30.9908 270.46 38.2694 276.163 38.2368C277.478 38.2289 278.927 37.7509 279.406 37.1665C279.854 36.6203 278.44 35.4547 277.841 35.8763C276.972 36.4877 275.165 36.3146 274.421 35.5491L273.789 34.8989L276.973 34.7988L280.157 34.6988L280.133 33.6912C280.072 31.1456 277.619 29.1852 275.182 29.7355ZM292.594 29.7839C289.128 30.4977 287.824 34.6765 290.33 37.0387C291.737 38.3631 294.207 38.6481 295.964 37.6866C300.395 35.2625 297.617 28.7501 292.594 29.7839ZM312.059 29.8705C308.034 30.9924 307.723 36.4861 311.599 38.005C313.306 38.6743 315.827 38.0876 316.96 36.7576C319.796 33.4276 316.404 28.6596 312.059 29.8705ZM194.292 34.0001V38.2186L195.436 38.159L196.58 38.0987V35.7445C196.58 33.0639 196.516 33.0639 198.035 35.7476C199.364 38.0963 199.623 38.0637 201.232 35.3491L202.446 33.2989L202.449 35.7492L202.451 38.1987H203.545H204.639V33.9993V29.799L203.495 29.8014L202.351 29.8038L200.968 32.2001L199.586 34.5963L199.049 33.6475C198.754 33.1259 198.164 32.069 197.737 31.2989L196.96 29.899L195.626 29.8395L194.292 29.7807V34.0001ZM207.027 33.9993V38.1987H208.213H209.399L209.457 36.6862L209.515 35.1728L211.256 35.1363L212.997 35.0989V36.6584V38.2178L214.206 38.1582L215.414 38.0987L215.425 33.9993L215.436 29.899L214.216 29.8395L212.997 29.7799V31.3894V32.9988H211.206H209.416V31.3989V29.799H208.221H207.027V33.9993ZM240.856 33.9993V38.1987L242.001 38.1868L243.145 38.1749L245.035 35.8183L246.926 33.4609L246.982 35.8302L247.037 38.1987H248.325H249.612V33.9993V29.799H248.439H247.266L245.304 32.2151L243.344 34.6305L243.288 32.2151L243.231 29.799H242.044H240.856V33.9993ZM262.656 30.0443C262.612 30.1841 262.537 31.3814 262.492 32.705C262.398 35.3768 262.203 35.9581 261.341 36.1311C260.371 36.3265 260.446 38.1185 261.429 38.2345C263.567 38.4854 264.378 37.3166 264.659 33.5824L264.792 31.7991H266.057H267.322V35.0084V38.2178L268.566 38.1582L269.809 38.0987L269.779 33.9993L269.748 29.899L266.242 29.8443C263.54 29.8022 262.718 29.8482 262.656 30.0443ZM280.734 30.0801C280.675 30.2341 280.655 30.6621 280.69 31.0297L280.754 31.699L282.197 31.7578L283.639 31.8165V35.0076V38.1987H284.834H286.027V34.9989V31.7991H287.42H288.813V30.7986V29.799H284.827C281.588 29.799 280.821 29.8514 280.734 30.0801ZM299.758 33.9993V38.1987L302.594 38.1947C306.338 38.1884 307.388 37.7636 307.649 36.1478C307.782 35.3181 307.309 34.2859 306.706 34.0937C306.296 33.9627 306.298 33.9484 306.83 33.3903C307.239 32.9615 307.374 32.6193 307.374 32.0127C307.374 30.3143 306.259 29.8093 302.494 29.803L299.758 29.799V33.9993ZM45.0987 31.3068C45.7978 32.47 45.8405 32.3986 44.4383 32.3986H43.2319L43.7731 31.3989C44.4327 30.1817 44.4232 30.1825 45.0987 31.3068ZM109.375 31.4084C109.625 32.4764 109.285 33.1989 108.531 33.1989H107.929V31.8864V30.5739L108.57 30.6359C109.12 30.6899 109.233 30.7978 109.375 31.4084ZM36.4909 32.0992C36.4909 33.0846 36.404 33.1632 35.8596 32.6677C35.4101 32.2588 35.403 32.0333 35.8249 31.5649C36.3352 30.9979 36.4909 31.1226 36.4909 32.0992ZM51.7142 31.599C52.0618 31.9849 52.0618 32.0127 51.7142 32.3986C51.1833 32.9877 51.0174 32.8924 51.0174 31.9992C51.0174 31.1051 51.1833 31.0098 51.7142 31.599ZM188.799 32.5486C188.625 34.0128 188.639 33.9993 187.437 33.9993H186.34L186.453 33.0488C186.626 31.5847 186.613 31.599 187.815 31.599H188.911L188.799 32.5486ZM222.962 32.1834C223.879 33.1052 223.748 33.1989 221.554 33.1989C219.398 33.1989 219.306 33.1378 220.079 32.2143C220.807 31.3449 222.114 31.3306 222.962 32.1834ZM231.81 36.3574C231.752 36.4154 231.346 36.3551 230.907 36.2225C228.742 35.5706 228.909 32.2779 231.13 31.8205L231.802 31.6816L231.859 33.9675C231.889 35.2244 231.867 36.2995 231.81 36.3574ZM236.272 32.4907C237.242 33.5292 236.872 35.4705 235.587 36.0835C234.309 36.6933 234.289 36.6615 234.289 34.0199V31.6411L235.07 31.8404C235.499 31.9499 236.039 32.2421 236.272 32.4907ZM277.353 32.2143C278.127 33.1378 278.035 33.1989 275.879 33.1989C273.684 33.1989 273.553 33.1052 274.47 32.1834C275.319 31.3306 276.626 31.3449 277.353 32.2143ZM304.892 31.8388C305.631 32.582 304.999 33.1513 303.362 33.2188L302.091 33.2712L302.069 32.4351L302.046 31.599H303.35C304.098 31.599 304.755 31.7014 304.892 31.8388ZM256.786 32.0047C257.299 32.2802 257.771 33.2362 257.771 33.9993C257.771 36.2487 254.89 37.1427 253.893 35.203C252.829 33.137 254.814 30.9439 256.786 32.0047ZM295.03 32.3017C296.44 33.719 295.552 36.1986 293.636 36.1986C291.774 36.1986 290.856 33.9175 292.114 32.4144C292.812 31.5807 294.258 31.5251 295.03 32.3017ZM314.82 32.2818C316.24 33.5086 315.309 36.1986 313.464 36.1986C311.678 36.1986 310.734 34.4788 311.598 32.7987C312.179 31.6697 313.809 31.4076 314.82 32.2818ZM305.295 35.3602C305.41 36.1716 305.009 36.3987 303.464 36.3987L302.046 36.3995L302.082 35.5491C302.102 35.0815 302.124 34.6988 302.132 34.6988C304.104 34.6988 305.235 34.9354 305.295 35.3602ZM49.6246 37.2991C49.6246 37.9724 49.597 37.9986 48.8891 37.9986H48.1536L48.8283 37.2991C49.1996 36.914 49.5306 36.5988 49.5638 36.5988C49.597 36.5988 49.6246 36.914 49.6246 37.2991ZM38.774 37.3928C39.248 37.8907 39.2882 38.0074 39.0212 38.1098C38.3821 38.3567 37.9855 38.1177 37.9208 37.4476C37.8433 36.6433 38.0464 36.6306 38.774 37.3928ZM44.2605 39.8891C43.8205 40.36 43.7841 40.3655 43.337 40.0392C42.6521 39.539 42.7508 39.3993 43.7889 39.3993H44.7187L44.2605 39.8891ZM39.8357 77.3493C39.2701 78.0107 39.2835 78.1576 40.0632 79.8297C42.4901 85.036 42.4925 91.1569 40.0696 96.3545C39.1974 98.2235 39.2274 98.8786 40.196 99.1231C42.0066 99.5797 44.2273 93.5747 44.2447 88.1755C44.2637 82.2363 41.4868 75.4167 39.8357 77.3493ZM35.4962 79.5987C34.9693 80.1283 34.9914 80.3982 35.6724 81.7544C37.7106 85.8133 37.6695 90.5289 35.5602 94.7164C34.8034 96.2187 35.6408 97.5955 36.8701 96.8706C37.4041 96.5553 38.6452 93.7962 39.0718 91.974C40.4187 86.223 37.8275 77.2556 35.4962 79.5987ZM31.3171 81.7989C30.7886 82.33 30.8123 82.6167 31.5075 84.0816C32.736 86.6685 32.7336 89.5777 31.5012 92.1971C30.8226 93.6398 30.7863 94.0161 31.2832 94.4679C33.3364 96.3354 35.5539 89.6698 34.3863 85.14C33.6137 82.145 32.3457 80.7651 31.3171 81.7989ZM27.2518 83.9133C26.8126 84.3547 26.8631 84.9447 27.4375 86.0825C28.0971 87.3894 28.0963 88.7408 27.4351 90.1684C26.2596 92.706 28.0355 93.9026 29.429 91.5126C31.2966 88.3104 29.414 81.7401 27.2518 83.9133Z" fill="#F9F4F8"/>
<path fill-rule="evenodd" clip-rule="evenodd" d="M57.087 73.6455C55.8278 74.0965 54.841 74.9723 54.2659 76.149L53.7035 77.3003L53.6395 82.4502L53.5747 87.6001H59.758H65.9421V86.0899C65.9421 83.3815 66.7298 82.5327 69.3407 82.4303L71.1158 82.3605V77.8799V73.4002L64.3993 73.416C60.1775 73.4256 57.4623 73.5113 57.087 73.6455ZM71.9114 77.8902V82.4002L73.553 82.4009C76.333 82.4017 77.1846 83.2323 77.1846 85.9398V87.5985L83.304 87.5993L89.4233 87.6001V82.5732C89.4233 77.0002 89.3356 76.4364 88.2754 75.1914C86.8376 73.5034 86.8613 73.5081 78.9258 73.4407L71.9114 73.3811V77.8902ZM67.3191 83.7849L66.7377 84.3693V87.8748C66.7377 93.0374 66.601 92.9 71.7391 92.9H75.2855L75.8377 92.3458C76.3867 91.794 76.3891 91.7789 76.4531 88.6553C76.5676 83.0798 76.6743 83.1997 71.6072 83.1997H67.9013L67.3191 83.7849ZM53.6395 93.3502C53.7192 98.9019 53.912 99.6998 55.4525 100.881C56.8887 101.983 57.0293 102 64.3432 102H71.1158V97.7982V93.5964L69.5295 93.6202C66.8167 93.6599 65.9429 92.7658 65.9421 89.9503V88.3996H59.7556H53.5684L53.6395 93.3502ZM77.2842 89.8368C77.2842 92.6356 76.3654 93.6035 73.6486 93.6638L72.0109 93.7004L71.9572 97.8593L71.9035 102.019L79.0214 101.96C86.8605 101.894 86.6852 101.921 88.0147 100.584C89.3001 99.2925 89.3174 99.2036 89.3854 93.5503L89.4478 88.3996H83.3656H77.2842V89.8368Z" fill="#AFA3AC"/>
<path fill-rule="evenodd" clip-rule="evenodd" d="M276.942 163.471L273.931 182.792H278.748L281.76 163.471H276.942ZM274.863 163.471L267.198 182.792H262.179L258.005 166.052C258.706 166.489 259.43 167.001 260.149 167.6C262.58 169.629 263.867 172.007 264.423 173.258L264.542 173.898L265.085 176.76L269.678 163.471H274.863ZM260.757 163.471C262.868 163.471 263.065 165.198 263.065 165.198L264.671 173.915C264.671 173.915 263.6 170.369 260.221 167.563C256.686 164.627 253 163.795 253 163.795L253.09 163.471H260.757ZM288.629 168.71C288.629 166.525 293.32 166.806 295.382 167.992L296.069 163.842C296.069 163.842 293.948 163 291.736 163C289.345 163 283.669 164.092 283.669 169.396C283.669 174.389 290.332 174.451 290.332 177.072C290.332 179.693 284.355 179.224 282.383 177.571L281.667 181.908C281.667 181.908 283.817 183 287.105 183C290.392 183 295.352 181.222 295.352 176.385C295.352 171.362 288.629 170.894 288.629 168.71ZM308.143 163.471H304.27C302.482 163.471 302.046 164.91 302.046 164.91L294.862 182.792H299.883L300.888 179.922H307.012L307.577 182.792H312L308.143 163.471ZM302.598 175.877L305.129 168.646L306.553 175.877H302.598Z" fill="white"/>
</g>
<defs>
<filter id="filter0_d" x="0" y="0" width="346" height="230" filterUnits="userSpaceOnUse" color-interpolation-filters="sRGB">
<feFlood flood-opacity="0" result="BackgroundImageFix"/>
<feColorMatrix in="SourceAlpha" type="matrix" values="0 0 0 0 0 0 0 0 0 0 0 0 0 0 0 0 0 0 127 0"/>
<feOffset dy="7"/>
<feGaussianBlur stdDeviation="7.5"/>
<feColorMatrix type="matrix" values="0 0 0 0 0 0 0 0 0 0 0 0 0 0 0 0 0 0 0.05 0"/>
<feBlend mode="normal" in2="BackgroundImageFix" result="effect1_dropShadow"/>
<feBlend mode="normal" in="SourceGraphic" in2="effect1_dropShadow" result="shape"/>
</filter>
<filter id="filter1_d" x="-9.2124" y="-11.9031" width="276.891" height="192.134" filterUnits="userSpaceOnUse" color-interpolation-filters="sRGB">
<feFlood flood-opacity="0" result="BackgroundImageFix"/>
<feColorMatrix in="SourceAlpha" type="matrix" values="0 0 0 0 0 0 0 0 0 0 0 0 0 0 0 0 0 0 127 0"/>
<feOffset dy="4"/>
<feGaussianBlur stdDeviation="12"/>
<feColorMatrix type="matrix" values="0 0 0 0 0 0 0 0 0 0 0 0 0 0 0 0 0 0 0.08 0"/>
<feBlend mode="normal" in2="BackgroundImageFix" result="effect1_dropShadow"/>
<feBlend mode="normal" in="SourceGraphic" in2="effect1_dropShadow" result="shape"/>
</filter>
<clipPath id="clip0">
<rect width="316" height="200" fill="white" transform="translate(15 8)"/>
</clipPath>
</defs>
</svg>
