<svg width="364" height="248" viewBox="0 0 364 248" fill="none" xmlns="http://www.w3.org/2000/svg">
<g filter="url(#filter0_ddd)">
<path d="M326.886 8H37.114C33.6395 8.01175 30.3108 9.40176 27.8539 11.8667C25.3971 14.3316 24.0117 17.6714 24 21.1574V194.842C24.0095 198.329 25.3942 201.67 27.8515 204.136C30.3088 206.601 33.6389 207.99 37.114 208H326.886C330.361 207.99 333.691 206.601 336.148 204.136C338.606 201.67 339.991 198.329 340 194.842V21.1574C339.991 17.6707 338.606 14.3296 336.148 11.8642C333.691 9.39885 330.361 8.00953 326.886 8Z" fill="#00A1AC"/>
</g>
<path d="M46.9718 94.5986C48.5947 97.5271 49.4476 100.835 49.4476 104.201C49.4476 107.566 48.5947 110.874 46.9718 113.803C46.8188 114.08 46.7796 114.408 46.8629 114.714C46.9462 115.021 47.1451 115.282 47.416 115.439C47.6869 115.595 48.0077 115.636 48.308 115.552C48.6082 115.467 48.8635 115.264 49.0176 114.988C50.8483 111.701 51.8094 107.983 51.8061 104.201C51.8157 100.418 50.8542 96.6983 49.0176 93.4136C48.8629 93.138 48.6078 92.9363 48.308 92.8523C48.0082 92.769 47.6882 92.8097 47.4178 92.9661C47.1474 93.1232 46.9487 93.3825 46.8651 93.6885C46.7816 93.9946 46.8199 94.3216 46.9718 94.5986Z" fill="white"/>
<path d="M42.7109 96.8893C43.979 99.1075 44.6447 101.632 44.6395 104.201C44.6449 106.771 43.9743 109.297 42.6979 111.512C42.5406 111.787 42.4969 112.116 42.5763 112.424C42.6558 112.732 42.8519 112.996 43.1214 113.156C43.3909 113.317 43.7119 113.362 44.0137 113.281C44.3155 113.2 44.5735 112.999 44.7307 112.724C46.207 110.136 46.9849 107.196 46.9849 104.201C46.9849 101.206 46.207 98.2645 44.7307 95.6772C44.6529 95.5398 44.5491 95.4199 44.4254 95.3238C44.3017 95.2276 44.1606 95.1579 44.0102 95.1186C43.8598 95.0787 43.7032 95.0699 43.5494 95.0929C43.3957 95.1159 43.248 95.1694 43.1149 95.2513C42.8522 95.4166 42.6631 95.6806 42.5876 95.9867C42.5122 96.2921 42.5564 96.6164 42.7109 96.8893Z" fill="white"/>
<path d="M38.4507 99.1529C39.3541 100.67 39.832 102.411 39.832 104.187C39.832 105.963 39.3541 107.704 38.4507 109.221C38.3694 109.354 38.3147 109.503 38.2897 109.659C38.2647 109.814 38.2699 109.973 38.305 110.126C38.3401 110.28 38.4044 110.425 38.4942 110.553C38.584 110.681 38.6977 110.789 38.8286 110.872C38.9595 110.955 39.1051 111.011 39.2572 111.037C39.4092 111.062 39.5647 111.057 39.7147 111.021C39.8648 110.985 40.0064 110.92 40.1316 110.828C40.2568 110.736 40.3631 110.62 40.4444 110.486C41.5835 108.597 42.1837 106.42 42.1774 104.2C42.1775 101.978 41.5778 99.7981 40.4444 97.9009C40.2792 97.6321 40.0168 97.4404 39.7142 97.368C39.4116 97.2955 39.0933 97.3484 38.8286 97.5149C38.5663 97.6808 38.3793 97.9469 38.3085 98.2537C38.2376 98.5611 38.2888 98.884 38.4507 99.1529Z" fill="white"/>
<path d="M34.423 101.404C35.0097 102.213 35.3251 103.194 35.3221 104.201C35.3183 104.707 35.2392 105.21 35.0876 105.692C34.9346 106.156 34.7102 106.592 34.423 106.984C34.3315 107.111 34.2652 107.255 34.2281 107.408C34.191 107.561 34.1837 107.72 34.2067 107.875C34.2297 108.031 34.2825 108.181 34.3621 108.316C34.4417 108.451 34.5465 108.568 34.6706 108.662C34.7946 108.756 34.9355 108.823 35.0851 108.861C35.2348 108.899 35.3903 108.907 35.5427 108.883C35.6952 108.859 35.8417 108.806 35.9737 108.724C36.1058 108.643 36.2209 108.536 36.3124 108.409C36.7406 107.811 37.0789 107.152 37.3158 106.451C37.6738 105.368 37.7695 104.212 37.5948 103.082C37.42 101.953 36.98 100.884 36.3124 99.9654C36.2214 99.8381 36.1062 99.7297 35.9738 99.6485C35.8413 99.5672 35.6941 99.5137 35.5411 99.4914C35.388 99.469 35.2321 99.4779 35.0825 99.5185C34.9331 99.5591 34.7929 99.6295 34.6706 99.7257C34.4217 99.9159 34.2562 100.199 34.2099 100.513C34.1636 100.827 34.2401 101.147 34.423 101.404Z" fill="white"/>
<path d="M289.158 188.32H284.98L287.593 172.391H291.772L289.158 188.32Z" fill="white"/>
<path d="M304.306 172.781C303.111 172.327 301.84 172.097 300.559 172.102C296.432 172.102 293.527 174.272 293.508 177.372C293.474 179.66 295.589 180.931 297.171 181.694C298.788 182.474 299.337 182.982 299.337 183.677C299.32 184.745 298.031 185.236 296.828 185.236C295.47 185.273 294.124 184.982 292.907 184.389L292.357 184.135L291.772 187.71C293.258 188.278 294.839 188.566 296.432 188.558C300.817 188.558 303.671 186.422 303.704 183.118C303.721 181.305 302.605 179.915 300.198 178.78C298.736 178.051 297.841 177.559 297.841 176.814C297.858 176.136 298.598 175.441 300.247 175.441C301.318 175.411 302.383 175.619 303.36 176.051L303.738 176.22L304.306 172.781Z" fill="white"/>
<path d="M309.858 182.677C310.203 181.763 311.526 178.221 311.526 178.221C311.51 178.254 311.87 177.288 312.076 176.696L312.368 178.068C312.368 178.068 313.16 181.881 313.332 182.677H309.858ZM315.017 172.391H311.784C311.322 172.336 310.855 172.437 310.459 172.677C310.062 172.917 309.76 173.282 309.6 173.713L303.394 188.32H307.778C307.778 188.32 308.5 186.354 308.655 185.931H314.019C314.14 186.49 314.518 188.32 314.518 188.32H318.387L315.017 172.391Z" fill="white"/>
<path d="M281.491 172.391L277.398 183.253L276.951 181.05C275.933 178.195 273.874 175.815 271.175 174.373L274.923 188.303H279.341L285.909 172.391H281.491V172.391Z" fill="white"/>
<path d="M273.598 172.391H266.876L266.807 172.713C272.051 174.035 275.525 177.221 276.951 181.051L275.49 173.73C275.4 173.315 275.157 172.947 274.807 172.699C274.458 172.452 274.027 172.342 273.598 172.391Z" fill="white"/>
<path d="M62.6357 28.5127C52.4977 28.5127 44.3872 47.2184 44.3872 55.601C44.3872 65.0529 80.8708 65.0529 80.8708 55.601C80.8843 47.2184 72.7738 28.5127 62.6357 28.5127ZM49.5543 53.2381C49.5543 46.8488 55.7418 32.5654 63.486 32.5654C71.2301 32.5654 77.4177 46.8488 77.4177 53.2381C77.4042 60.4589 49.5543 60.4589 49.5543 53.2381Z" fill="white"/>
<path d="M65.3701 37.741C60.7001 37.741 56.9719 46.3612 56.9719 50.2159C56.9719 54.5722 73.7684 54.5722 73.7684 50.2159C73.7814 46.348 70.0402 37.741 65.3701 37.741ZM60.6085 48.6318C60.6085 46.0972 63.0678 40.434 66.1289 40.434C69.1899 40.434 71.6492 46.0972 71.6492 48.6318C71.6492 51.4964 60.6085 51.4964 60.6085 48.6318Z" fill="white"/>
<path d="M187.084 51.2804C186.631 51.2816 186.18 51.2474 185.732 51.1781C185.511 51.1205 185.306 51.0147 185.131 50.8686C184.956 50.7224 184.817 50.5395 184.723 50.3334C184.63 50.1273 184.584 49.9032 184.59 49.6775C184.596 49.4519 184.654 49.2305 184.758 49.0295C184.89 48.7815 185.102 48.584 185.361 48.4682C185.62 48.3523 185.911 48.3248 186.188 48.39C186.355 48.4165 186.524 48.4294 186.694 48.4284C186.902 48.4379 187.108 48.4015 187.3 48.3218C187.491 48.2421 187.661 48.1212 187.799 47.968C188.09 47.5866 188.234 47.1145 188.201 46.6379V36.0612C188.201 35.5864 188.393 35.131 188.734 34.7952C189.075 34.4594 189.537 34.2707 190.02 34.2707C190.502 34.2707 190.965 34.4594 191.306 34.7952C191.647 35.131 191.839 35.5864 191.839 36.0612V46.6251C191.892 47.2519 191.806 47.8827 191.585 48.4731C191.365 49.0635 191.016 49.5993 190.563 50.0429C190.109 50.4864 189.563 50.827 188.962 51.0408C188.361 51.2546 187.721 51.3364 187.084 51.2804ZM190.007 32.5314C189.405 32.5581 188.818 32.3515 188.37 31.9559C188.166 31.7757 188.004 31.5547 187.894 31.3076C187.784 31.0605 187.729 30.7932 187.733 30.5235C187.727 30.2534 187.78 29.9851 187.89 29.7376C188 29.4901 188.164 29.2694 188.37 29.0911C188.818 28.6955 189.405 28.4889 190.007 28.5156C190.604 28.4864 191.19 28.6832 191.644 29.0655C191.845 29.2363 192.007 29.4484 192.117 29.6869C192.227 29.9255 192.283 30.1848 192.28 30.4468C192.289 30.7265 192.237 31.0047 192.126 31.2627C192.017 31.5209 191.852 31.7528 191.644 31.9431C191.424 32.1434 191.167 32.2987 190.885 32.3997C190.604 32.5007 190.306 32.5455 190.007 32.5314Z" fill="white"/>
<path d="M206.04 34.2582C206.522 34.2596 206.983 34.4487 207.324 34.7842C207.665 35.1196 207.857 35.5742 207.858 36.0487V44.9244C207.858 45.1479 207.814 45.3691 207.727 45.5755C207.64 45.7819 207.513 45.9695 207.353 46.1274C207.192 46.2854 207.002 46.4107 206.792 46.4961C206.582 46.5816 206.358 46.6255 206.13 46.6254H205.896C205.5 46.6254 205.12 46.4704 204.84 46.1945C204.56 45.9188 204.402 45.5447 204.402 45.1546C203.924 45.6853 203.335 46.1084 202.674 46.3952C201.987 46.6754 201.249 46.8146 200.505 46.8045C199.789 46.8407 199.072 46.7348 198.398 46.4932C197.725 46.2515 197.107 45.8789 196.582 45.3977C196.067 44.835 195.672 44.1757 195.422 43.4592C195.172 42.7428 195.072 41.984 195.127 41.2283V36.0232C195.127 35.5482 195.318 35.0928 195.659 34.757C196.001 34.4213 196.463 34.2326 196.945 34.2326C197.428 34.2326 197.891 34.4213 198.232 34.757C198.573 35.0928 198.764 35.5482 198.764 36.0232V40.6912C198.764 42.6864 199.609 43.6839 201.311 43.6839C201.701 43.6988 202.09 43.6325 202.453 43.4892C202.816 43.346 203.144 43.1291 203.415 42.8526C203.994 42.1464 204.277 41.2502 204.207 40.3459V36.0232C204.215 35.5508 204.412 35.1004 204.755 34.7699C205.098 34.4395 205.559 34.2556 206.04 34.2582Z" fill="white"/>
<path d="M218.873 34.079C219.563 34.0493 220.252 34.1562 220.899 34.3935C221.546 34.6308 222.138 34.9935 222.64 35.4602C223.153 36.0088 223.547 36.6548 223.797 37.3586C224.047 38.0623 224.149 38.809 224.095 39.5528V44.8475C224.095 45.3224 223.904 45.7778 223.563 46.1136C223.222 46.4493 222.759 46.638 222.277 46.638C221.794 46.638 221.332 46.4493 220.99 46.1136C220.649 45.7778 220.458 45.3224 220.458 44.8475V40.1027C220.52 39.32 220.289 38.5421 219.808 37.9157C219.566 37.6629 219.271 37.4654 218.944 37.3372C218.616 37.209 218.263 37.1533 217.912 37.1739C217.505 37.1539 217.098 37.22 216.72 37.3679C216.34 37.5157 215.998 37.7418 215.716 38.0308C215.122 38.7193 214.828 39.6111 214.898 40.512V44.8347C214.898 45.3096 214.706 45.765 214.365 46.1008C214.024 46.4366 213.561 46.6252 213.079 46.6252C212.596 46.6252 212.134 46.4366 211.793 46.1008C211.452 45.765 211.26 45.3096 211.26 44.8347V35.9718C211.26 35.5172 211.443 35.0814 211.77 34.76C212.097 34.4386 212.539 34.258 213.001 34.258H213.274C213.466 34.2578 213.657 34.295 213.835 34.3676C214.014 34.4402 214.176 34.5466 214.312 34.6809C214.448 34.8151 214.557 34.9745 214.63 35.1499C214.704 35.3253 214.742 35.5134 214.742 35.7032C215.239 35.1682 215.858 34.7564 216.548 34.501C217.286 34.2106 218.077 34.0672 218.873 34.079Z" fill="white"/>
<path d="M227.397 36.0484C227.397 35.5736 227.589 35.1182 227.93 34.7824C228.271 34.4466 228.734 34.258 229.216 34.258C229.698 34.258 230.161 34.4466 230.502 34.7824C230.843 35.1182 231.034 35.5736 231.034 36.0484V44.8347C231.034 45.3095 230.843 45.7649 230.502 46.1007C230.161 46.4365 229.698 46.6251 229.216 46.6251C228.734 46.6251 228.271 46.4365 227.93 46.1007C227.589 45.7649 227.397 45.3095 227.397 44.8347V36.0484ZM229.216 32.5314C228.615 32.5581 228.027 32.3515 227.579 31.9559C227.375 31.7757 227.213 31.5547 227.103 31.3076C226.993 31.0606 226.939 30.7932 226.943 30.5235C226.935 30.2534 226.989 29.9851 227.099 29.7376C227.209 29.4901 227.373 29.2694 227.579 29.0911C228.027 28.6955 228.615 28.4889 229.216 28.5156C229.813 28.4864 230.398 28.6832 230.853 29.0655C231.055 29.2363 231.216 29.4484 231.326 29.6869C231.436 29.9255 231.492 30.1848 231.49 30.4468C231.498 30.7265 231.445 31.0047 231.336 31.2627C231.226 31.5209 231.061 31.7528 230.853 31.9431C230.407 32.3438 229.819 32.5552 229.216 32.5314Z" fill="white"/>
<path d="M240.402 46.8171C239.162 46.8371 237.936 46.5607 236.829 46.0114C235.818 45.4832 234.97 44.6969 234.373 43.7349C233.774 42.7419 233.467 41.6033 233.49 40.448C233.472 39.2933 233.778 38.156 234.373 37.1612C234.963 36.2006 235.814 35.4211 236.829 34.9103C237.932 34.3482 239.159 34.0627 240.402 34.079C241.636 34.0595 242.856 34.3454 243.948 34.9103C244.961 35.425 245.81 36.2036 246.404 37.1612C247.004 38.1542 247.31 39.2927 247.287 40.448C247.305 41.6028 247 42.7401 246.404 43.7349C245.811 44.6999 244.962 45.4871 243.948 46.0114C242.851 46.562 241.633 46.8387 240.402 46.8171ZM240.402 43.8756C240.827 43.8909 241.251 43.8167 241.645 43.6579C242.04 43.4991 242.395 43.2594 242.688 42.9548C243.317 42.2708 243.644 41.3692 243.597 40.448C243.623 39.9956 243.556 39.5427 243.399 39.1164C243.243 38.6902 243.001 38.2992 242.688 37.967C242.398 37.6574 242.043 37.4127 241.649 37.2494C241.255 37.0861 240.829 37.0081 240.402 37.0206C239.97 37.0092 239.541 37.0877 239.143 37.2508C238.744 37.4139 238.385 37.6579 238.089 37.967C237.777 38.2999 237.536 38.6909 237.38 39.117C237.223 39.5431 237.156 39.9957 237.18 40.448C237.156 40.9043 237.223 41.3607 237.379 41.7909C237.536 42.2212 237.777 42.6168 238.089 42.9548C238.389 43.2578 238.749 43.4963 239.147 43.6548C239.545 43.8133 239.973 43.8885 240.402 43.8756Z" fill="white"/>
<path d="M253.212 35.8945C253.658 35.292 254.265 34.8227 254.966 34.5389C255.277 34.4122 255.599 34.3138 255.927 34.2447C256.133 34.2114 256.344 34.224 256.544 34.2819C256.744 34.3398 256.928 34.4413 257.083 34.5789C257.238 34.7165 257.359 34.8868 257.438 35.0769C257.517 35.267 257.551 35.4721 257.538 35.6771V36.5851C257.536 36.6878 257.512 36.7888 257.469 36.8825C257.427 36.9761 257.366 37.0605 257.289 37.1307C257.213 37.2009 257.123 37.2554 257.026 37.2913C256.928 37.3272 256.824 37.3437 256.72 37.3397C256.272 37.3163 255.824 37.3813 255.403 37.5306C254.981 37.6799 254.594 37.9107 254.265 38.2094C253.947 38.5558 253.705 38.9626 253.553 39.4047C253.401 39.8468 253.342 40.3148 253.381 40.78V44.8342C253.381 45.309 253.19 45.7644 252.848 46.1002C252.507 46.436 252.045 46.6246 251.563 46.6246C251.08 46.6246 250.617 46.436 250.276 46.1002C249.935 45.7644 249.743 45.309 249.743 44.8342V35.9712C249.743 35.5168 249.927 35.0808 250.253 34.7595C250.58 34.438 251.023 34.2575 251.485 34.2575H251.563C251.78 34.2581 251.995 34.3011 252.196 34.3837C252.397 34.4664 252.578 34.5871 252.732 34.7392C252.885 34.8912 253.007 35.0716 253.089 35.2698C253.171 35.468 253.213 35.6803 253.212 35.8945Z" fill="white"/>
<path d="M267.358 34.0663C268.473 34.0535 269.572 34.3315 270.541 34.8719C271.497 35.384 272.282 36.1568 272.802 37.0973C273.367 38.1203 273.65 39.2713 273.621 40.4353C273.646 41.6071 273.364 42.7656 272.802 43.7989C272.275 44.7339 271.491 45.5048 270.541 46.0242C269.568 46.5523 268.47 46.8211 267.358 46.8043C266.619 46.8511 265.879 46.7301 265.194 46.4508C264.509 46.1714 263.899 45.7411 263.409 45.1929C263.41 45.3811 263.372 45.5675 263.299 45.7414C263.226 45.9153 263.119 46.0733 262.984 46.2064C262.848 46.3395 262.688 46.445 262.512 46.5169C262.335 46.5888 262.145 46.6256 261.954 46.6253H261.668C261.207 46.6253 260.764 46.4447 260.437 46.1233C260.111 45.8019 259.928 45.366 259.928 44.9115V31.355C259.928 30.8801 260.119 30.4247 260.46 30.0889C260.801 29.7531 261.264 29.5645 261.746 29.5645C262.228 29.5645 262.692 29.7531 263.033 30.0889C263.373 30.4247 263.565 30.8801 263.565 31.355V35.5626C264.051 35.0593 264.642 34.6651 265.296 34.4069C265.951 34.1487 266.655 34.0325 267.358 34.0663ZM266.735 43.8628C267.161 43.8781 267.585 43.8039 267.979 43.6452C268.374 43.4864 268.729 43.2466 269.022 42.942C269.65 42.2581 269.977 41.3564 269.931 40.4353C269.956 39.9828 269.889 39.5299 269.732 39.1037C269.577 38.6775 269.334 38.2865 269.022 37.9542C268.731 37.6446 268.377 37.3999 267.983 37.2366C267.588 37.0734 267.163 36.9953 266.735 37.0078C266.304 36.9965 265.875 37.0749 265.477 37.238C265.078 37.4011 264.719 37.6451 264.422 37.9542C263.806 38.6332 263.488 39.5257 263.539 40.4353C263.495 41.3517 263.811 42.2498 264.422 42.942C264.722 43.245 265.083 43.4835 265.481 43.642C265.879 43.8006 266.306 43.8757 266.735 43.8628Z" fill="white"/>
<path d="M280.936 34.0661C282.552 33.9587 284.152 34.4515 285.418 35.4474C285.968 35.9798 286.394 36.6243 286.665 37.3355C286.937 38.0468 287.047 38.8078 286.99 39.5655V44.9498C286.99 45.1699 286.946 45.3879 286.86 45.5913C286.775 45.7947 286.65 45.9795 286.492 46.1352C286.333 46.2908 286.146 46.4142 285.939 46.4983C285.733 46.5823 285.511 46.6255 285.288 46.6251H285.145C284.938 46.6255 284.734 46.5857 284.543 46.5081C284.352 46.4305 284.178 46.3165 284.033 46.1728C283.886 46.0289 283.77 45.8582 283.692 45.6703C283.613 45.4824 283.572 45.281 283.573 45.0777C283.155 45.6829 282.578 46.1639 281.902 46.4683C281.226 46.7727 280.479 46.8889 279.74 46.8042C278.874 46.8214 278.015 46.6557 277.22 46.3182C276.566 46.034 276.007 45.5727 275.609 44.9881C275.232 44.4133 275.037 43.741 275.05 43.057C275.029 42.5342 275.138 42.0142 275.367 41.5418C275.595 41.0696 275.937 40.659 276.363 40.3457C277.584 39.5949 279.019 39.2498 280.455 39.3609H283.352C283.373 39.028 283.319 38.6946 283.193 38.3849C283.067 38.0752 282.873 37.797 282.624 37.5704C282.008 37.0971 281.234 36.8688 280.455 36.9309C279.779 36.9288 279.107 37.0369 278.467 37.2506C278.415 37.2634 278.35 37.289 278.298 37.3018C277.902 37.4618 277.462 37.4804 277.054 37.3542C276.646 37.228 276.295 36.9652 276.064 36.6112C275.984 36.4731 275.933 36.3207 275.914 36.163C275.895 36.0053 275.909 35.8455 275.954 35.693C275.998 35.5404 276.073 35.3982 276.175 35.2748C276.276 35.1513 276.402 35.0491 276.544 34.9741C277.005 34.7633 277.483 34.5922 277.973 34.4626C278.938 34.1958 279.934 34.0624 280.936 34.0661ZM280.649 44.3871C281.231 44.3961 281.804 44.255 282.313 43.9778C282.795 43.6871 283.158 43.239 283.339 42.7116V41.4455H280.844C279.35 41.4455 278.597 41.9315 278.597 42.8907C278.59 43.1026 278.635 43.313 278.728 43.5043C278.821 43.6956 278.958 43.8624 279.13 43.9906C279.581 44.2777 280.113 44.4165 280.649 44.3871Z" fill="white"/>
<path d="M297.927 34.0666C298.617 34.0369 299.306 34.1438 299.953 34.3811C300.6 34.6184 301.193 34.9811 301.695 35.4478C302.206 35.9973 302.597 36.6437 302.845 37.3475C303.093 38.0513 303.192 38.7974 303.137 39.5404V44.8351C303.137 45.31 302.945 45.7654 302.604 46.1012C302.263 46.437 301.8 46.6256 301.318 46.6256C300.836 46.6256 300.373 46.437 300.032 46.1012C299.691 45.7654 299.499 45.31 299.499 44.8351V40.0903C299.561 39.3076 299.33 38.5297 298.849 37.9033C298.608 37.6505 298.313 37.453 297.985 37.3248C297.657 37.1966 297.305 37.1409 296.953 37.1615C296.546 37.1415 296.139 37.2076 295.761 37.3555C295.381 37.5033 295.04 37.7294 294.757 38.0184C294.163 38.7069 293.869 39.5987 293.939 40.4996V44.8223C293.939 45.2972 293.747 45.7526 293.406 46.0884C293.065 46.4242 292.602 46.6128 292.12 46.6128C291.638 46.6128 291.175 46.4242 290.834 46.0884C290.493 45.7526 290.301 45.2972 290.301 44.8223V35.9594C290.301 35.5048 290.485 35.069 290.811 34.7476C291.138 34.4262 291.58 34.2456 292.042 34.2456H292.315C292.508 34.2454 292.699 34.2827 292.877 34.3552C293.055 34.4278 293.217 34.5342 293.353 34.6685C293.49 34.8027 293.598 34.9621 293.672 35.1375C293.745 35.3129 293.783 35.501 293.783 35.6908C294.278 35.1588 294.891 34.7474 295.576 34.4886C296.324 34.1994 297.123 34.0561 297.927 34.0666Z" fill="white"/>
<path d="M311.842 41.7653L310.088 43.4663V44.8219C310.088 45.2968 309.897 45.7522 309.555 46.088C309.214 46.4238 308.752 46.6124 308.27 46.6124C307.787 46.6124 307.324 46.4238 306.983 46.088C306.642 45.7522 306.45 45.2968 306.45 44.8219V31.342C306.45 30.8672 306.642 30.4117 306.983 30.076C307.324 29.7402 307.787 29.5515 308.27 29.5515C308.752 29.5515 309.214 29.7402 309.555 30.076C309.897 30.4117 310.088 30.8672 310.088 31.342V39.2074L314.96 34.6545C315.257 34.3777 315.651 34.2263 316.06 34.2328C316.469 34.2393 316.858 34.4033 317.146 34.6894C317.433 34.9755 317.595 35.3611 317.597 35.7634C317.598 36.1658 317.44 36.5527 317.155 36.8414L314.531 39.476L318.013 43.8371C318.216 44.0896 318.341 44.393 318.377 44.7128C318.413 45.0326 318.355 45.3556 318.214 45.6451C318.071 45.9347 317.849 46.179 317.572 46.35C317.296 46.5211 316.976 46.612 316.649 46.6124C316.389 46.6133 316.133 46.5561 315.899 46.4454C315.665 46.3346 315.459 46.1731 315.298 45.9729L311.842 41.7653Z" fill="white"/>
<path d="M182.031 40.4091H183.797C184.136 40.4091 184.459 40.5411 184.698 40.7762C184.936 41.0113 185.071 41.33 185.071 41.6624C185.071 41.9948 184.936 42.3136 184.698 42.5487C184.459 42.7837 184.136 42.9158 183.797 42.9158H181.719L181.395 45.4736C181.374 45.6426 181.32 45.8059 181.236 45.9542C181.151 46.1025 181.037 46.2328 180.902 46.3378C180.766 46.4427 180.61 46.52 180.443 46.5654C180.277 46.6108 180.103 46.6233 179.932 46.6022C179.76 46.5811 179.595 46.5269 179.445 46.4425C179.295 46.3581 179.163 46.2454 179.057 46.1108C178.952 45.9762 178.875 45.8223 178.83 45.6581C178.784 45.4939 178.773 45.3225 178.796 45.1539L179.082 42.9158H175.639L175.315 45.4864C175.27 45.8246 175.091 46.1317 174.818 46.3405C174.544 46.5493 174.197 46.6427 173.854 46.6005C173.51 46.5582 173.197 46.3835 172.984 46.1149C172.77 45.8461 172.674 45.5052 172.716 45.1667L173.002 42.9158H171.209C170.871 42.9158 170.548 42.7837 170.309 42.5487C170.07 42.3136 169.936 41.9948 169.936 41.6624C169.936 41.33 170.07 41.0113 170.309 40.7762C170.548 40.5411 170.871 40.4091 171.209 40.4091H173.314L173.807 36.6746H172.015C171.676 36.6746 171.353 36.5426 171.114 36.3076C170.876 36.0725 170.741 35.7537 170.741 35.4213C170.741 35.0889 170.876 34.7701 171.114 34.5351C171.353 34.3 171.676 34.168 172.015 34.168H174.119L174.444 31.5973C174.488 31.2592 174.667 30.9521 174.941 30.7433C175.214 30.5345 175.561 30.441 175.905 30.4833C176.248 30.5256 176.561 30.7002 176.774 30.9689C176.987 31.2376 177.083 31.5786 177.042 31.917L176.756 34.168H180.199L180.524 31.5973C180.568 31.2592 180.747 30.9521 181.021 30.7433C181.294 30.5345 181.641 30.441 181.985 30.4833C182.328 30.5256 182.641 30.7002 182.854 30.9689C183.067 31.2376 183.163 31.5786 183.122 31.917L182.836 34.168H184.616C184.954 34.168 185.278 34.3 185.517 34.5351C185.755 34.7701 185.889 35.0889 185.889 35.4213C185.889 35.7537 185.755 36.0725 185.517 36.3076C185.278 36.5426 184.954 36.6746 184.616 36.6746H182.525L182.031 40.4091ZM179.381 40.4091L179.874 36.6746H176.431L175.938 40.4091H179.381Z" fill="white"/>
<defs>
<filter id="filter0_ddd" x="0" y="0" width="364" height="248" filterUnits="userSpaceOnUse" color-interpolation-filters="sRGB">
<feFlood flood-opacity="0" result="BackgroundImageFix"/>
<feColorMatrix in="SourceAlpha" type="matrix" values="0 0 0 0 0 0 0 0 0 0 0 0 0 0 0 0 0 0 127 0"/>
<feOffset/>
<feGaussianBlur stdDeviation="0.5"/>
<feColorMatrix type="matrix" values="0 0 0 0 0 0 0 0 0 0 0 0 0 0 0 0 0 0 0.04 0"/>
<feBlend mode="normal" in2="BackgroundImageFix" result="effect1_dropShadow"/>
<feColorMatrix in="SourceAlpha" type="matrix" values="0 0 0 0 0 0 0 0 0 0 0 0 0 0 0 0 0 0 127 0"/>
<feOffset dy="2"/>
<feGaussianBlur stdDeviation="3"/>
<feColorMatrix type="matrix" values="0 0 0 0 0 0 0 0 0 0.631373 0 0 0 0 0.67451 0 0 0 0.12 0"/>
<feBlend mode="normal" in2="effect1_dropShadow" result="effect2_dropShadow"/>
<feColorMatrix in="SourceAlpha" type="matrix" values="0 0 0 0 0 0 0 0 0 0 0 0 0 0 0 0 0 0 127 0"/>
<feOffset dy="16"/>
<feGaussianBlur stdDeviation="12"/>
<feColorMatrix type="matrix" values="0 0 0 0 0 0 0 0 0 0.631373 0 0 0 0 0.67451 0 0 0 0.15 0"/>
<feBlend mode="normal" in2="effect2_dropShadow" result="effect3_dropShadow"/>
<feBlend mode="normal" in="SourceGraphic" in2="effect3_dropShadow" result="shape"/>
</filter>
</defs>
</svg>
