<svg id="svg" version="1.1" xmlns="http://www.w3.org/2000/svg" xmlns:xlink="http://www.w3.org/1999/xlink" width="400" height="251.88916876574305" viewBox="0, 0, 400,251.88916876574305"><g id="svgg"><path id="path0" d="M11.487 0.181 C 11.101 0.280,11.077 0.347,11.361 0.537 C 11.595 0.692,11.468 0.714,10.983 0.601 C 10.498 0.488,10.307 0.520,10.416 0.695 C 10.520 0.864,10.381 0.909,10.037 0.818 C 9.667 0.722,9.550 0.769,9.671 0.965 C 9.787 1.152,9.712 1.201,9.459 1.104 C 9.243 1.021,9.068 1.085,9.068 1.247 C 9.068 1.409,8.955 1.471,8.816 1.385 C 8.678 1.300,8.564 1.356,8.564 1.511 C 8.564 1.666,8.434 1.712,8.274 1.614 C 8.115 1.515,7.831 1.643,7.644 1.899 C 7.458 2.154,7.305 2.263,7.305 2.141 C 7.305 2.019,7.126 2.139,6.908 2.408 C 6.690 2.677,6.589 2.727,6.684 2.519 C 6.779 2.311,6.589 2.430,6.262 2.783 C 5.935 3.136,5.778 3.249,5.914 3.035 C 6.049 2.820,5.339 3.484,4.336 4.509 C 3.332 5.534,2.560 6.422,2.620 6.482 C 2.680 6.542,2.525 6.795,2.275 7.045 C 1.641 7.679,0.807 10.023,0.499 12.033 C 0.324 13.180,0.263 50.358,0.309 127.078 L 0.378 240.428 1.027 242.096 C 2.813 246.679,5.758 249.513,10.327 251.047 C 11.873 251.565,387.615 251.928,387.295 251.411 C 387.214 251.279,387.598 251.241,388.200 251.322 C 389.021 251.432,389.202 251.391,389.042 251.133 C 388.906 250.913,388.937 250.865,389.136 250.987 C 389.555 251.246,390.971 250.897,390.777 250.582 C 390.674 250.417,390.821 250.389,391.184 250.504 C 391.519 250.610,391.691 250.587,391.604 250.446 C 391.523 250.316,391.878 250.009,392.391 249.764 C 393.941 249.026,395.670 247.632,396.897 246.131 C 397.536 245.349,398.145 244.735,398.250 244.765 C 398.355 244.796,398.764 244.059,399.158 243.128 L 399.874 241.436 399.874 125.945 L 399.874 10.453 399.193 8.865 C 397.495 4.903,394.912 2.429,391.255 1.260 L 389.043 0.553 201.095 0.466 C 97.723 0.417,13.277 0.295,13.437 0.193 C 13.753 -0.008,12.262 -0.018,11.487 0.181 M42.890 21.159 L 45.592 21.159 45.592 23.873 L 45.592 26.587 47.481 28.464 L 49.371 30.341 47.490 32.236 L 45.608 34.131 45.537 36.776 L 45.466 39.421 42.737 39.461 L 40.008 39.501 38.287 41.350 L 36.565 43.199 34.719 41.381 L 32.872 39.563 30.101 39.492 L 27.330 39.421 27.290 36.679 L 27.249 33.937 25.407 32.082 L 23.564 30.227 25.384 28.395 L 27.204 26.562 27.204 23.861 L 27.204 21.159 29.918 21.159 L 32.632 21.159 34.509 19.269 L 36.386 17.380 38.287 19.269 L 40.187 21.159 42.890 21.159 M35.642 20.403 C 35.392 20.680,35.232 20.914,35.288 20.924 C 37.028 21.216,37.922 20.881,37.091 20.250 C 36.480 19.786,36.171 19.819,35.642 20.403 M28.883 22.838 C 28.644 23.078,28.675 24.433,28.920 24.433 C 29.165 24.433,30.479 23.095,30.479 22.845 C 30.479 22.621,29.106 22.615,28.883 22.838 M31.202 24.857 L 28.967 27.043 28.967 30.215 L 28.967 33.386 31.051 35.459 L 33.134 37.531 36.400 37.531 L 39.667 37.531 41.748 35.365 L 43.829 33.198 43.829 30.153 L 43.829 27.109 41.609 24.889 L 39.390 22.670 36.413 22.670 L 33.436 22.670 31.202 24.857 M42.821 23.552 C 43.291 24.037,43.710 24.433,43.752 24.433 C 43.794 24.433,43.829 24.037,43.829 23.552 C 43.829 22.703,43.794 22.670,42.898 22.670 L 41.967 22.670 42.821 23.552 M277.582 25.408 L 277.582 27.391 278.881 27.563 C 285.571 28.451,285.322 38.035,278.609 38.035 L 277.604 38.035 277.530 39.861 L 277.456 41.688 276.008 41.763 L 274.559 41.839 274.559 39.937 L 274.559 38.035 273.475 38.035 C 271.849 38.035,269.910 36.973,269.141 35.661 C 266.933 31.892,269.478 27.456,273.849 27.456 L 274.559 27.456 274.559 25.441 L 274.559 23.426 276.071 23.426 L 277.582 23.426 277.582 25.408 M39.262 28.576 C 40.804 31.271,42.065 33.594,42.065 33.740 C 42.065 33.918,40.150 34.005,36.255 34.005 C 30.799 34.005,30.448 33.977,30.524 33.552 C 30.664 32.764,35.852 23.678,36.162 23.678 C 36.325 23.678,37.720 25.882,39.262 28.576 M217.767 25.819 L 217.592 27.456 218.976 27.456 L 220.359 27.456 220.570 25.882 L 220.781 24.307 221.888 24.228 L 222.995 24.149 222.825 25.802 L 222.656 27.456 223.922 27.456 L 225.189 27.456 225.189 28.589 L 225.189 29.723 223.815 29.723 L 222.441 29.723 222.292 30.668 C 221.937 32.926,221.857 32.746,223.209 32.746 L 224.433 32.746 224.433 33.879 L 224.433 35.013 223.073 35.013 L 221.712 35.013 221.537 36.524 L 221.361 38.035 220.228 38.035 L 219.094 38.035 219.270 36.524 L 219.445 35.013 218.066 35.013 C 216.566 35.013,216.373 35.275,216.373 37.311 C 216.373 38.004,216.323 38.035,215.207 38.035 L 214.041 38.035 214.212 36.524 L 214.383 35.013 213.111 35.013 L 211.839 35.013 211.839 33.879 L 211.839 32.746 213.219 32.746 C 214.732 32.746,214.667 32.824,214.955 30.668 L 215.082 29.723 213.838 29.723 L 212.594 29.723 212.594 28.589 L 212.594 27.456 213.951 27.456 L 215.307 27.456 215.487 26.008 C 215.716 24.167,215.705 24.181,216.921 24.181 L 217.943 24.181 217.767 25.819 M35.584 26.864 C 33.157 31.088,32.494 32.301,32.494 32.516 C 32.494 32.645,34.314 32.746,36.650 32.746 C 39.046 32.746,40.806 32.646,40.806 32.511 C 40.806 32.252,37.123 25.694,36.786 25.353 C 36.670 25.236,36.129 25.916,35.584 26.864 M100.406 26.288 C 100.421 26.307,100.504 26.785,100.591 27.350 L 100.748 28.378 99.429 28.269 C 97.813 28.135,97.179 28.662,97.179 30.138 C 97.179 31.722,98.389 32.350,100.214 31.713 L 101.008 31.437 101.008 28.817 L 101.008 26.196 103.896 26.196 C 106.767 26.196,106.789 26.201,107.674 26.978 L 108.564 27.760 108.564 26.978 L 108.564 26.196 111.587 26.196 L 114.610 26.196 114.610 27.193 L 114.610 28.189 112.929 28.263 C 110.676 28.363,110.371 28.967,112.573 28.967 L 114.106 28.967 114.106 29.962 L 114.106 30.957 112.657 31.033 C 110.274 31.157,110.649 31.864,113.098 31.864 L 114.987 31.864 115.059 29.030 L 115.130 26.196 117.527 26.196 C 120.261 26.196,121.154 26.519,121.925 27.783 L 122.416 28.589 122.417 27.393 L 122.418 26.196 127.708 26.196 L 132.997 26.196 132.997 27.204 C 132.997 28.210,132.996 28.212,131.998 28.212 L 130.999 28.212 130.928 31.045 L 130.856 33.879 129.471 33.879 L 128.086 33.879 128.014 31.045 L 127.943 28.212 126.566 28.212 L 125.189 28.212 125.189 31.108 L 125.189 34.005 123.804 34.005 L 122.418 34.005 122.417 32.809 L 122.416 31.612 121.908 32.446 C 121.045 33.861,120.326 34.005,114.114 34.005 L 108.564 34.005 108.564 31.864 C 108.564 29.678,108.518 29.528,107.987 29.983 C 107.820 30.127,107.491 30.382,107.257 30.550 C 106.862 30.835,106.874 30.961,107.434 32.317 C 108.119 33.981,108.045 34.086,106.270 33.958 L 105.177 33.879 104.622 31.990 C 103.911 29.566,103.911 29.471,104.645 29.471 C 105.401 29.471,105.687 29.069,105.281 28.578 C 104.232 27.315,103.778 28.072,103.778 31.083 L 103.778 33.955 100.574 33.960 C 96.259 33.967,95.291 33.515,94.458 31.104 C 94.106 30.083,94.048 30.034,93.590 30.371 C 93.062 30.760,93.033 30.588,94.153 33.704 C 94.243 33.955,93.924 34.014,92.797 33.956 L 91.324 33.879 90.769 31.990 C 90.101 29.716,90.067 29.375,90.530 29.553 C 91.158 29.794,91.854 29.093,91.458 28.617 C 90.374 27.311,89.924 28.043,89.924 31.114 L 89.924 34.016 85.327 33.948 L 80.730 33.879 80.659 31.045 L 80.588 28.212 79.463 28.212 L 78.338 28.212 78.338 31.108 L 78.338 34.005 76.952 34.005 L 75.567 34.005 75.567 31.108 L 75.567 28.212 74.307 28.212 L 73.048 28.212 73.048 31.108 L 73.048 34.005 71.470 34.005 L 69.893 34.005 68.888 32.053 L 67.884 30.101 67.811 32.056 L 67.737 34.010 61.387 33.991 C 52.922 33.966,51.727 33.449,51.955 29.908 C 52.120 27.326,53.576 26.136,56.423 26.254 L 58.060 26.322 58.136 27.363 L 58.212 28.405 57.129 28.283 C 55.667 28.120,54.660 28.868,54.660 30.119 C 54.660 31.722,55.991 32.378,57.897 31.713 L 58.690 31.437 58.690 28.817 L 58.690 26.196 61.713 26.196 L 64.736 26.196 64.736 27.193 L 64.736 28.189 63.035 28.263 C 60.742 28.363,60.562 29.053,62.798 29.169 L 64.261 29.245 64.183 30.177 L 64.106 31.108 62.720 31.132 C 61.710 31.150,61.335 31.252,61.335 31.510 C 61.335 31.784,61.783 31.864,63.319 31.864 L 65.302 31.864 65.257 29.030 L 65.212 26.196 66.852 26.196 L 68.492 26.196 69.489 28.275 L 70.485 30.353 70.507 28.275 L 70.529 26.196 78.715 26.196 L 86.902 26.196 86.902 27.204 L 86.902 28.212 85.139 28.212 C 82.808 28.212,82.540 28.899,84.824 29.018 L 86.272 29.093 86.349 30.025 L 86.427 30.956 84.964 31.032 C 82.589 31.156,82.946 31.837,85.390 31.845 L 87.280 31.851 87.310 30.220 C 87.327 29.323,87.355 28.051,87.373 27.393 L 87.406 26.196 89.937 26.196 C 92.726 26.196,93.667 26.498,94.143 27.543 L 94.430 28.172 95.328 27.325 C 96.448 26.269,99.827 25.579,100.406 26.288 M38.639 29.261 C 40.323 32.320,40.526 32.021,36.819 31.935 L 33.771 31.864 35.298 29.156 C 36.138 27.667,36.915 26.505,37.026 26.574 C 37.137 26.642,37.863 27.851,38.639 29.261 M264.229 28.054 C 265.775 28.823,266.792 30.473,266.841 32.290 L 266.877 33.627 262.909 33.627 C 258.654 33.627,258.559 33.661,259.678 34.780 C 260.539 35.640,262.533 35.808,263.834 35.129 C 264.759 34.647,266.529 36.005,265.926 36.735 C 263.890 39.203,257.947 38.251,256.394 35.207 C 253.913 30.345,259.177 25.539,264.229 28.054 M307.364 27.887 C 309.346 28.680,310.778 31.287,310.430 33.468 C 309.377 40.051,298.901 39.413,298.911 32.767 C 298.915 29.911,300.470 28.140,303.652 27.366 C 304.396 27.186,306.268 27.448,307.364 27.887 M331.806 27.552 C 334.219 28.278,335.554 29.964,335.612 32.358 L 335.642 33.627 331.612 33.753 L 327.582 33.879 328.381 34.698 C 329.323 35.662,331.611 35.880,332.711 35.110 C 333.469 34.579,335.259 36.047,334.692 36.735 C 334.085 37.471,332.251 38.073,330.586 38.083 C 322.863 38.127,322.543 27.795,330.250 27.233 C 330.470 27.217,331.170 27.360,331.806 27.552 M355.632 28.043 C 359.352 29.895,359.364 35.370,355.651 37.390 C 351.803 39.484,346.878 36.914,346.857 32.800 C 346.835 28.573,351.555 26.014,355.632 28.043 M380.412 27.887 C 384.534 29.536,384.458 35.973,380.295 37.655 C 376.186 39.317,372.040 36.851,372.040 32.746 C 372.040 28.542,376.125 26.172,380.412 27.887 M231.313 29.345 C 231.854 30.315,232.601 31.646,232.974 32.303 L 233.653 33.498 235.403 30.480 L 237.154 27.462 238.602 27.459 L 240.050 27.456 240.050 32.746 L 240.050 38.035 238.665 38.035 L 237.280 38.035 237.277 34.950 L 237.274 31.864 235.737 34.446 C 233.701 37.865,233.373 37.906,231.690 34.948 C 229.768 31.568,229.849 31.568,229.849 34.944 L 229.849 37.909 228.401 37.985 L 226.952 38.060 226.952 32.747 L 226.952 27.433 228.641 27.507 L 230.330 27.582 231.313 29.345 M246.096 29.471 L 246.096 31.486 248.363 31.486 L 250.630 31.486 250.630 29.459 L 250.630 27.432 252.173 27.507 L 253.717 27.582 253.703 32.746 L 253.689 37.909 252.160 37.984 L 250.630 38.059 250.630 36.095 L 250.630 34.131 248.426 34.178 L 246.222 34.224 246.148 36.130 L 246.075 38.035 244.574 38.035 L 243.073 38.035 243.073 32.746 L 243.073 27.456 244.584 27.456 L 246.096 27.456 246.096 29.471 M288.972 30.499 L 289.043 33.541 291.525 30.499 L 294.008 27.456 295.493 27.456 L 296.977 27.456 296.977 32.746 L 296.977 38.035 295.348 38.035 L 293.718 38.035 293.648 35.052 L 293.577 32.068 291.184 35.037 L 288.791 38.005 287.343 38.020 L 285.894 38.035 285.894 32.746 L 285.894 27.456 287.398 27.456 L 288.901 27.456 288.972 30.499 M322.505 32.746 L 322.544 37.909 320.970 37.984 L 319.395 38.059 319.395 34.017 L 319.395 29.975 317.794 29.975 L 316.193 29.975 316.024 32.221 C 315.669 36.924,314.642 38.396,311.936 38.080 C 310.691 37.934,310.597 35.677,311.825 35.431 C 312.916 35.213,313.163 34.481,313.281 31.116 C 313.339 29.449,313.433 27.941,313.489 27.765 C 313.567 27.518,314.608 27.460,318.028 27.513 L 322.466 27.582 322.505 32.746 M346.599 28.715 L 346.599 29.975 344.836 29.975 L 343.073 29.975 343.073 34.005 L 343.073 38.035 341.562 38.035 L 340.050 38.035 340.050 34.016 L 340.050 29.997 338.224 29.923 L 336.398 29.849 336.317 29.006 C 336.165 27.414,336.021 27.456,341.554 27.456 L 346.599 27.456 346.599 28.715 M368.388 27.925 C 370.293 28.792,370.743 30.583,369.406 31.979 C 368.732 32.682,368.729 32.700,369.249 32.865 C 370.012 33.107,370.611 34.407,370.442 35.452 C 370.112 37.487,368.783 38.022,364.043 38.030 L 360.453 38.035 360.453 32.746 L 360.453 27.456 363.917 27.461 C 366.720 27.466,367.572 27.554,368.388 27.925 M36.422 29.471 L 35.737 30.730 37.264 30.730 C 39.039 30.730,38.985 30.820,38.100 29.355 C 37.245 27.939,37.257 27.938,36.422 29.471 M117.632 30.085 L 117.632 31.738 118.394 31.738 C 119.991 31.738,120.038 28.666,118.443 28.510 L 117.632 28.432 117.632 30.085 M26.361 29.680 C 25.827 30.270,25.836 30.554,26.405 31.069 C 27.094 31.693,27.204 31.594,27.204 30.353 C 27.204 29.123,27.007 28.966,26.361 29.680 M45.592 30.227 C 45.592 31.352,45.802 31.472,46.474 30.730 C 46.914 30.244,46.914 30.209,46.474 29.723 C 45.802 28.981,45.592 29.101,45.592 30.227 M217.268 30.038 C 217.215 30.211,217.107 30.891,217.029 31.549 L 216.886 32.746 218.275 32.746 C 219.796 32.746,219.779 32.763,219.999 30.919 L 220.141 29.723 218.753 29.723 C 217.862 29.723,217.330 29.836,217.268 30.038 M259.594 30.498 C 258.616 31.661,258.732 31.738,261.461 31.738 C 264.239 31.738,264.404 31.620,263.244 30.459 C 262.170 29.385,260.516 29.403,259.594 30.498 M273.583 30.002 C 270.771 30.578,270.560 34.725,273.300 35.546 C 274.623 35.943,274.587 36.028,274.505 32.706 L 274.433 29.827 273.583 30.002 M277.582 32.772 C 277.582 36.099,277.607 36.139,279.225 35.371 C 281.631 34.229,281.197 30.694,278.570 30.027 L 277.582 29.776 277.582 32.772 M328.444 30.459 C 327.283 31.620,327.448 31.738,330.227 31.738 C 332.956 31.738,333.072 31.661,332.093 30.498 C 331.172 29.403,329.518 29.385,328.444 30.459 M363.379 30.776 L 363.407 31.829 365.015 31.763 C 368.249 31.631,368.236 29.723,365.000 29.723 L 363.350 29.723 363.379 30.776 M303.212 30.247 C 302.112 30.888,301.699 32.916,302.396 34.262 C 303.303 36.017,306.017 36.017,306.924 34.262 C 308.271 31.657,305.652 28.825,303.212 30.247 M350.778 30.750 C 349.809 31.902,349.848 33.766,350.862 34.780 C 352.803 36.720,355.819 34.825,355.258 32.018 C 354.844 29.950,352.104 29.174,350.778 30.750 M376.259 30.247 C 374.716 31.146,374.748 34.422,376.308 35.257 C 378.283 36.314,380.227 35.068,380.227 32.746 C 380.227 30.427,378.172 29.133,376.259 30.247 M363.459 33.627 C 363.449 33.627,363.421 34.109,363.396 34.698 L 363.350 35.769 365.145 35.768 C 367.101 35.768,367.608 35.482,367.463 34.460 C 367.387 33.925,365.955 33.627,363.459 33.627 M42.821 36.902 L 41.967 37.783 42.898 37.783 C 43.794 37.783,43.829 37.750,43.829 36.902 C 43.829 36.417,43.794 36.020,43.752 36.020 C 43.710 36.020,43.291 36.417,42.821 36.902 M29.014 37.089 C 29.096 37.933,29.598 38.234,30.407 37.923 C 30.745 37.794,30.694 37.647,30.094 37.020 C 29.173 36.060,28.916 36.076,29.014 37.089 M35.272 39.736 C 35.304 40.481,36.475 40.765,37.039 40.164 L 37.619 39.547 36.442 39.547 C 35.794 39.547,35.268 39.632,35.272 39.736 M90.957 82.057 C 92.355 82.746,93.810 84.148,94.546 85.516 C 95.407 87.116,95.395 113.657,94.533 115.269 C 93.681 116.862,92.861 117.713,91.394 118.525 L 90.050 119.270 71.662 119.270 L 53.275 119.270 52.058 118.648 C 50.629 117.918,49.259 116.483,48.595 115.022 C 48.016 113.746,47.843 88.015,48.403 86.373 C 48.822 85.142,49.997 83.501,50.940 82.830 C 53.036 81.338,52.634 81.364,72.040 81.428 L 89.798 81.486 90.957 82.057 M33.015 87.163 C 34.052 87.718,36.038 92.625,36.652 96.151 C 37.996 103.858,35.008 115.547,31.894 114.766 C 30.668 114.458,30.630 113.633,31.734 111.279 C 34.801 104.733,34.798 97.024,31.726 90.467 C 30.739 88.361,30.722 88.176,31.438 87.343 C 31.870 86.839,32.315 86.788,33.015 87.163 M28.091 90.331 C 28.825 91.123,30.144 94.448,30.625 96.719 C 31.940 102.920,29.369 112.689,26.605 111.995 C 25.430 111.700,25.237 110.774,26.026 109.216 C 28.696 103.942,28.748 98.003,26.168 92.891 C 24.883 90.345,26.324 88.425,28.091 90.331 M22.598 93.010 C 26.153 96.890,25.295 109.320,21.473 109.320 C 20.100 109.320,19.892 108.150,20.888 106.043 C 22.448 102.744,22.451 99.080,20.896 95.822 C 19.658 93.227,20.906 91.164,22.598 93.010 M17.440 95.529 C 19.474 97.101,19.923 102.352,18.265 105.181 C 16.501 108.191,14.253 106.684,15.741 103.488 C 16.578 101.690,16.579 99.988,15.744 98.342 C 14.587 96.062,15.712 94.194,17.440 95.529 M392.972 249.721 C 392.362 250.040,391.973 250.369,392.107 250.452 C 392.241 250.535,392.853 250.269,393.468 249.861 C 394.794 248.981,394.529 248.906,392.972 249.721 " stroke="none" fill="#c35bc0" fill-rule="evenodd"></path><path id="path1" d="M13.437 0.192 C 13.277 0.294,97.723 0.418,201.095 0.467 L 389.043 0.556 390.921 1.149 C 393.311 1.905,393.453 1.778,391.258 0.850 L 389.547 0.126 201.637 0.066 C 98.287 0.034,13.597 0.090,13.437 0.192 M34.509 19.269 L 32.632 21.159 29.918 21.159 L 27.204 21.159 27.204 23.861 L 27.204 26.562 25.384 28.395 L 23.564 30.227 25.407 32.082 L 27.249 33.937 27.290 36.679 L 27.330 39.421 30.101 39.492 L 32.872 39.563 34.719 41.381 L 36.565 43.199 38.287 41.350 L 40.008 39.501 42.737 39.461 L 45.466 39.421 45.537 36.776 L 45.608 34.131 47.490 32.236 L 49.371 30.341 47.481 28.464 L 45.592 26.587 45.592 23.873 L 45.592 21.159 42.890 21.159 L 40.187 21.159 38.287 19.269 L 36.386 17.380 34.509 19.269 M37.091 20.250 C 37.922 20.881,37.028 21.216,35.288 20.924 C 35.064 20.886,36.117 19.900,36.374 19.907 C 36.526 19.912,36.848 20.066,37.091 20.250 M30.479 22.845 C 30.479 23.095,29.165 24.433,28.920 24.433 C 28.675 24.433,28.644 23.078,28.883 22.838 C 29.106 22.615,30.479 22.621,30.479 22.845 M41.609 24.889 L 43.829 27.109 43.829 30.153 L 43.829 33.198 41.748 35.365 L 39.667 37.531 36.400 37.531 L 33.134 37.531 31.051 35.459 L 28.967 33.386 28.967 30.215 L 28.967 27.043 31.202 24.857 L 33.436 22.670 36.413 22.670 L 39.390 22.670 41.609 24.889 M43.829 23.552 C 43.829 24.037,43.794 24.433,43.752 24.433 C 43.710 24.433,43.291 24.037,42.821 23.552 L 41.967 22.670 42.898 22.670 C 43.794 22.670,43.829 22.703,43.829 23.552 M274.559 25.441 L 274.559 27.456 273.849 27.456 C 269.478 27.456,266.933 31.892,269.141 35.661 C 269.910 36.973,271.849 38.035,273.475 38.035 L 274.559 38.035 274.559 39.937 L 274.559 41.839 276.008 41.763 L 277.456 41.688 277.530 39.861 L 277.604 38.035 278.609 38.035 C 285.322 38.035,285.571 28.451,278.881 27.563 L 277.582 27.391 277.582 25.408 L 277.582 23.426 276.071 23.426 L 274.559 23.426 274.559 25.441 M33.235 28.388 C 31.788 30.979,30.568 33.303,30.524 33.552 C 30.448 33.977,30.799 34.005,36.255 34.005 C 40.150 34.005,42.065 33.918,42.065 33.740 C 42.065 33.237,36.457 23.678,36.162 23.678 C 35.999 23.678,34.682 25.797,33.235 28.388 M215.783 24.370 C 215.720 24.474,215.586 25.211,215.487 26.008 L 215.307 27.456 213.951 27.456 L 212.594 27.456 212.594 28.589 L 212.594 29.723 213.838 29.723 L 215.082 29.723 214.955 30.668 C 214.667 32.824,214.732 32.746,213.219 32.746 L 211.839 32.746 211.839 33.879 L 211.839 35.013 213.111 35.013 L 214.383 35.013 214.212 36.524 L 214.041 38.035 215.207 38.035 C 216.323 38.035,216.373 38.004,216.373 37.311 C 216.373 35.275,216.566 35.013,218.066 35.013 L 219.445 35.013 219.270 36.524 L 219.094 38.035 220.228 38.035 L 221.361 38.035 221.537 36.524 L 221.712 35.013 223.073 35.013 L 224.433 35.013 224.433 33.879 L 224.433 32.746 223.209 32.746 C 221.857 32.746,221.937 32.926,222.292 30.668 L 222.441 29.723 223.815 29.723 L 225.189 29.723 225.189 28.589 L 225.189 27.456 223.922 27.456 L 222.656 27.456 222.825 25.802 L 222.995 24.149 221.888 24.228 L 220.781 24.307 220.570 25.882 L 220.359 27.456 218.976 27.456 L 217.592 27.456 217.767 25.819 L 217.943 24.181 216.921 24.181 C 216.359 24.181,215.847 24.266,215.783 24.370 M38.902 28.922 C 39.949 30.767,40.806 32.382,40.806 32.511 C 40.806 32.646,39.046 32.746,36.650 32.746 C 34.314 32.746,32.494 32.645,32.494 32.516 C 32.494 32.301,33.157 31.088,35.584 26.864 C 36.129 25.916,36.670 25.236,36.786 25.353 C 36.903 25.471,37.855 27.077,38.902 28.922 M97.295 26.232 C 96.672 26.375,95.853 26.830,95.328 27.325 L 94.430 28.172 94.143 27.543 C 93.667 26.498,92.726 26.196,89.937 26.196 L 87.406 26.196 87.373 27.393 C 87.355 28.051,87.327 29.323,87.310 30.220 L 87.280 31.851 85.390 31.845 C 82.946 31.837,82.589 31.156,84.964 31.032 L 86.427 30.956 86.349 30.025 L 86.272 29.093 84.824 29.018 C 82.540 28.899,82.808 28.212,85.139 28.212 L 86.902 28.212 86.902 27.204 L 86.902 26.196 78.715 26.196 L 70.529 26.196 70.507 28.275 L 70.485 30.353 69.489 28.275 L 68.492 26.196 66.852 26.196 L 65.212 26.196 65.257 29.030 L 65.302 31.864 63.319 31.864 C 61.783 31.864,61.335 31.784,61.335 31.510 C 61.335 31.252,61.710 31.150,62.720 31.132 L 64.106 31.108 64.183 30.177 L 64.261 29.245 62.798 29.169 C 60.562 29.053,60.742 28.363,63.035 28.263 L 64.736 28.189 64.736 27.193 L 64.736 26.196 61.713 26.196 L 58.690 26.196 58.690 28.817 L 58.690 31.437 57.897 31.713 C 55.991 32.378,54.660 31.722,54.660 30.119 C 54.660 28.868,55.667 28.120,57.129 28.283 L 58.212 28.405 58.136 27.363 L 58.060 26.322 56.423 26.254 C 53.576 26.136,52.120 27.326,51.955 29.908 C 51.727 33.449,52.922 33.966,61.387 33.991 L 67.737 34.010 67.811 32.056 L 67.884 30.101 68.888 32.053 L 69.893 34.005 71.470 34.005 L 73.048 34.005 73.048 31.108 L 73.048 28.212 74.307 28.212 L 75.567 28.212 75.567 31.108 L 75.567 34.005 76.952 34.005 L 78.338 34.005 78.338 31.108 L 78.338 28.212 79.463 28.212 L 80.588 28.212 80.659 31.045 L 80.730 33.879 85.327 33.948 L 89.924 34.016 89.924 31.114 C 89.924 28.043,90.374 27.311,91.458 28.617 C 91.854 29.093,91.158 29.794,90.530 29.553 C 90.067 29.375,90.101 29.716,90.769 31.990 L 91.324 33.879 92.797 33.956 C 93.924 34.014,94.243 33.955,94.153 33.704 C 93.033 30.588,93.062 30.760,93.590 30.371 C 94.048 30.034,94.106 30.083,94.458 31.104 C 95.291 33.515,96.259 33.967,100.574 33.960 L 103.778 33.955 103.778 31.083 C 103.778 28.072,104.232 27.315,105.281 28.578 C 105.687 29.069,105.401 29.471,104.645 29.471 C 103.911 29.471,103.911 29.566,104.622 31.990 L 105.177 33.879 106.270 33.958 C 108.045 34.086,108.119 33.981,107.434 32.317 C 106.874 30.961,106.862 30.835,107.257 30.550 C 107.491 30.382,107.820 30.127,107.987 29.983 C 108.518 29.528,108.564 29.678,108.564 31.864 L 108.564 34.005 114.114 34.005 C 120.326 34.005,121.045 33.861,121.908 32.446 L 122.416 31.612 122.417 32.809 L 122.418 34.005 123.804 34.005 L 125.189 34.005 125.189 31.108 L 125.189 28.212 126.566 28.212 L 127.943 28.212 128.014 31.045 L 128.086 33.879 129.471 33.879 L 130.856 33.879 130.928 31.045 L 130.999 28.212 131.998 28.212 C 132.996 28.212,132.997 28.210,132.997 27.204 L 132.997 26.196 127.708 26.196 L 122.418 26.196 122.417 27.393 L 122.416 28.589 121.925 27.783 C 121.154 26.519,120.261 26.196,117.527 26.196 L 115.130 26.196 115.059 29.030 L 114.987 31.864 113.098 31.864 C 110.649 31.864,110.274 31.157,112.657 31.033 L 114.106 30.957 114.106 29.962 L 114.106 28.967 112.573 28.967 C 110.371 28.967,110.676 28.363,112.929 28.263 L 114.610 28.189 114.610 27.193 L 114.610 26.196 111.587 26.196 L 108.564 26.196 108.564 26.978 L 108.564 27.760 107.674 26.978 C 106.789 26.201,106.767 26.196,103.896 26.196 L 101.008 26.196 101.008 28.817 L 101.008 31.437 100.214 31.713 C 98.389 32.350,97.179 31.722,97.179 30.138 C 97.179 28.662,97.813 28.135,99.429 28.269 L 100.748 28.378 100.591 27.350 C 100.504 26.785,100.421 26.307,100.406 26.288 C 100.237 26.081,98.122 26.043,97.295 26.232 M35.298 29.156 L 33.771 31.864 36.819 31.935 C 38.495 31.974,39.908 31.965,39.958 31.914 C 40.074 31.798,37.298 26.742,37.026 26.574 C 36.915 26.505,36.138 27.667,35.298 29.156 M260.202 27.435 C 254.804 28.556,254.230 35.743,259.377 37.771 C 261.242 38.506,264.949 37.919,265.926 36.735 C 266.529 36.005,264.759 34.647,263.834 35.129 C 262.533 35.808,260.539 35.640,259.678 34.780 C 258.559 33.661,258.654 33.627,262.909 33.627 L 266.877 33.627 266.841 32.290 C 266.755 29.068,263.565 26.735,260.202 27.435 M303.652 27.366 C 295.889 29.253,298.168 39.364,306.045 37.980 C 310.089 37.270,311.843 32.382,309.174 29.264 C 307.989 27.880,305.317 26.962,303.652 27.366 M329.345 27.376 C 322.304 28.957,323.367 38.124,330.586 38.083 C 332.251 38.073,334.085 37.471,334.692 36.735 C 335.259 36.047,333.469 34.579,332.711 35.110 C 331.611 35.880,329.323 35.662,328.381 34.698 L 327.582 33.879 331.612 33.753 L 335.642 33.627 335.612 32.358 C 335.534 29.152,332.429 26.683,329.345 27.376 M351.385 27.437 C 346.998 28.336,345.347 33.599,348.520 36.574 C 350.300 38.242,353.427 38.601,355.651 37.390 C 361.260 34.337,357.744 26.135,351.385 27.437 M376.025 27.546 C 370.930 28.959,370.536 35.878,375.442 37.791 C 377.603 38.634,380.794 37.895,382.228 36.220 C 385.818 32.026,381.524 26.021,376.025 27.546 M226.952 32.747 L 226.952 38.060 228.401 37.985 L 229.849 37.909 229.849 34.944 C 229.849 31.568,229.768 31.568,231.690 34.948 C 233.373 37.906,233.701 37.865,235.737 34.446 L 237.274 31.864 237.277 34.950 L 237.280 38.035 238.665 38.035 L 240.050 38.035 240.050 32.746 L 240.050 27.456 238.602 27.459 L 237.154 27.462 235.403 30.480 L 233.653 33.498 232.974 32.303 C 232.601 31.646,231.854 30.315,231.313 29.345 L 230.330 27.582 228.641 27.507 L 226.952 27.433 226.952 32.747 M243.073 32.746 L 243.073 38.035 244.574 38.035 L 246.075 38.035 246.148 36.130 L 246.222 34.224 248.426 34.178 L 250.630 34.131 250.630 36.095 L 250.630 38.059 252.160 37.984 L 253.689 37.909 253.703 32.746 L 253.717 27.582 252.173 27.507 L 250.630 27.432 250.630 29.459 L 250.630 31.486 248.363 31.486 L 246.096 31.486 246.096 29.471 L 246.096 27.456 244.584 27.456 L 243.073 27.456 243.073 32.746 M285.894 32.746 L 285.894 38.035 287.343 38.020 L 288.791 38.005 291.184 35.037 L 293.577 32.068 293.648 35.052 L 293.718 38.035 295.348 38.035 L 296.977 38.035 296.977 32.746 L 296.977 27.456 295.493 27.456 L 294.008 27.456 291.525 30.499 L 289.043 33.541 288.972 30.499 L 288.901 27.456 287.398 27.456 L 285.894 27.456 285.894 32.746 M313.489 27.765 C 313.433 27.941,313.339 29.449,313.281 31.116 C 313.163 34.481,312.916 35.213,311.825 35.431 C 310.597 35.677,310.691 37.934,311.936 38.080 C 314.642 38.396,315.669 36.924,316.024 32.221 L 316.193 29.975 317.794 29.975 L 319.395 29.975 319.395 34.017 L 319.395 38.059 320.970 37.984 L 322.544 37.909 322.505 32.746 L 322.466 27.582 318.028 27.513 C 314.608 27.460,313.567 27.518,313.489 27.765 M336.372 27.810 C 336.298 28.004,336.273 28.543,336.317 29.006 L 336.398 29.849 338.224 29.923 L 340.050 29.997 340.050 34.016 L 340.050 38.035 341.562 38.035 L 343.073 38.035 343.073 34.005 L 343.073 29.975 344.836 29.975 L 346.599 29.975 346.599 28.715 L 346.599 27.456 341.554 27.456 C 337.453 27.456,336.483 27.522,336.372 27.810 M360.453 32.746 L 360.453 38.035 364.043 38.030 C 368.783 38.022,370.112 37.487,370.442 35.452 C 370.611 34.407,370.012 33.107,369.249 32.865 C 368.729 32.700,368.732 32.682,369.406 31.979 C 369.923 31.439,370.094 31.008,370.094 30.244 C 370.094 28.105,368.683 27.469,363.917 27.461 L 360.453 27.456 360.453 32.746 M38.100 29.355 C 38.985 30.820,39.039 30.730,37.264 30.730 L 35.737 30.730 36.422 29.471 C 37.257 27.938,37.245 27.939,38.100 29.355 M119.463 29.483 C 119.779 30.828,119.348 31.738,118.394 31.738 L 117.632 31.738 117.632 30.085 L 117.632 28.432 118.443 28.510 C 119.140 28.578,119.283 28.714,119.463 29.483 M27.204 30.353 C 27.204 31.594,27.094 31.693,26.405 31.069 C 25.836 30.554,25.827 30.270,26.361 29.680 C 27.007 28.966,27.204 29.123,27.204 30.353 M46.474 29.723 C 46.914 30.209,46.914 30.244,46.474 30.730 C 45.802 31.472,45.592 31.352,45.592 30.227 C 45.592 29.101,45.802 28.981,46.474 29.723 M219.999 30.919 C 219.779 32.763,219.796 32.746,218.275 32.746 L 216.886 32.746 217.029 31.549 C 217.248 29.705,217.232 29.723,218.753 29.723 L 220.141 29.723 219.999 30.919 M263.244 30.459 C 264.404 31.620,264.239 31.738,261.461 31.738 C 258.732 31.738,258.616 31.661,259.594 30.498 C 260.516 29.403,262.170 29.385,263.244 30.459 M274.443 35.716 C 274.370 35.789,273.856 35.713,273.300 35.546 C 270.560 34.725,270.771 30.578,273.583 30.002 L 274.433 29.827 274.505 32.706 C 274.544 34.289,274.516 35.643,274.443 35.716 M280.091 30.846 C 281.320 32.154,280.851 34.599,279.225 35.371 C 277.607 36.139,277.582 36.099,277.582 32.772 L 277.582 29.776 278.570 30.027 C 279.113 30.165,279.797 30.533,280.091 30.846 M332.093 30.498 C 333.072 31.661,332.956 31.738,330.227 31.738 C 327.448 31.738,327.283 31.620,328.444 30.459 C 329.518 29.385,331.172 29.403,332.093 30.498 M366.952 30.025 C 367.888 30.961,367.088 31.678,365.015 31.763 L 363.407 31.829 363.379 30.776 L 363.350 29.723 365.000 29.723 C 365.947 29.723,366.779 29.852,366.952 30.025 M306.059 30.234 C 306.708 30.581,307.305 31.785,307.305 32.746 C 307.305 35.579,303.659 36.705,302.396 34.262 C 301.050 31.660,303.562 28.898,306.059 30.234 M354.469 30.608 C 356.253 32.393,355.130 35.516,352.704 35.516 C 350.347 35.516,349.185 32.643,350.778 30.750 C 351.661 29.700,353.491 29.630,354.469 30.608 M379.520 30.583 C 381.317 32.128,380.138 35.516,377.803 35.516 C 375.542 35.516,374.347 33.350,375.441 31.234 C 376.176 29.812,378.240 29.482,379.520 30.583 M367.463 34.460 C 367.608 35.482,367.101 35.768,365.145 35.768 L 363.350 35.769 363.396 34.698 C 363.421 34.109,363.449 33.627,363.459 33.627 C 365.955 33.627,367.387 33.925,367.463 34.460 M43.829 36.902 C 43.829 37.750,43.794 37.783,42.898 37.783 L 41.967 37.783 42.821 36.902 C 43.291 36.417,43.710 36.020,43.752 36.020 C 43.794 36.020,43.829 36.417,43.829 36.902 M30.094 37.020 C 30.694 37.647,30.745 37.794,30.407 37.923 C 29.598 38.234,29.096 37.933,29.014 37.089 C 28.916 36.076,29.173 36.060,30.094 37.020 M37.039 40.164 C 36.482 40.757,36.436 40.764,35.870 40.353 C 35.003 39.723,35.128 39.547,36.442 39.547 L 37.619 39.547 37.039 40.164 M31.438 87.343 C 30.722 88.176,30.739 88.361,31.726 90.467 C 34.798 97.024,34.801 104.733,31.734 111.279 C 30.630 113.633,30.668 114.458,31.894 114.766 C 34.186 115.341,36.997 107.778,37.019 100.978 C 37.043 93.498,33.528 84.909,31.438 87.343 M25.945 90.176 C 25.278 90.843,25.306 91.183,26.168 92.891 C 28.748 98.003,28.696 103.942,26.026 109.216 C 25.068 111.108,26.128 112.842,27.684 111.929 C 28.360 111.532,29.931 108.057,30.471 105.762 C 32.176 98.519,28.896 87.225,25.945 90.176 M20.655 92.947 C 19.986 93.616,20.016 93.977,20.896 95.822 C 22.451 99.080,22.448 102.744,20.888 106.043 C 20.029 107.860,19.983 108.334,20.612 108.903 C 23.211 111.255,26.018 102.860,24.540 97.155 C 23.562 93.383,21.957 91.645,20.655 92.947 M15.509 95.610 C 14.953 96.166,15.017 96.909,15.744 98.342 C 16.579 99.988,16.578 101.690,15.741 103.488 C 14.253 106.684,16.501 108.191,18.265 105.181 C 20.629 101.148,18.246 92.873,15.509 95.610 M397.113 245.864 C 395.957 247.380,394.500 248.610,392.663 249.623 C 390.811 250.644,391.280 250.570,393.496 249.491 C 395.602 248.466,396.128 248.019,397.396 246.179 C 398.589 244.447,398.375 244.208,397.113 245.864 " stroke="none" fill="#f9f4f8" fill-rule="evenodd"></path><path id="path2" d="M53.275 82.677 C 51.681 83.245,50.432 84.348,49.704 85.830 L 48.992 87.280 48.911 93.766 L 48.829 100.252 56.656 100.252 L 64.484 100.252 64.484 98.350 C 64.484 94.939,65.481 93.870,68.786 93.741 L 71.033 93.653 71.033 88.010 L 71.033 82.368 62.531 82.388 C 57.187 82.400,53.750 82.508,53.275 82.677 M72.040 88.023 L 72.040 93.703 74.118 93.704 C 77.637 93.705,78.715 94.751,78.715 98.161 L 78.715 100.250 86.461 100.251 L 94.207 100.252 94.207 93.921 C 94.207 86.902,94.096 86.192,92.754 84.624 C 90.934 82.498,90.964 82.504,80.919 82.419 L 72.040 82.344 72.040 88.023 M66.227 95.447 L 65.491 96.183 65.491 100.598 C 65.491 107.100,65.318 106.927,71.822 106.927 L 76.311 106.927 77.010 106.229 C 77.705 105.534,77.708 105.515,77.789 101.581 C 77.934 94.559,78.069 94.710,71.655 94.710 L 66.964 94.710 66.227 95.447 M48.911 107.494 C 49.012 114.486,49.256 115.491,51.206 116.979 C 53.024 118.366,53.202 118.388,62.460 118.388 L 71.033 118.388 71.033 113.096 L 71.033 107.804 69.025 107.834 C 65.591 107.884,64.485 106.758,64.484 103.212 L 64.484 101.259 56.653 101.259 L 48.821 101.259 48.911 107.494 M78.841 103.069 C 78.841 106.594,77.678 107.813,74.239 107.889 L 72.166 107.935 72.098 113.173 L 72.030 118.412 81.040 118.337 C 90.963 118.254,90.741 118.288,92.424 116.605 C 94.051 114.978,94.073 114.866,94.159 107.746 L 94.238 101.259 86.539 101.259 L 78.841 101.259 78.841 103.069 " stroke="none" fill="#afa3ac" fill-rule="evenodd"></path></g></svg>